<svg width="130" height="130" viewBox="0 0 130 130" fill="none" xmlns="http://www.w3.org/2000/svg">
<path d="M106.503 0H22.9179C10.2605 0 0 10.5544 0 23.5743V106.226C0 119.246 10.2605 129.8 22.9179 129.8H106.503C119.161 129.8 129.421 119.246 129.421 106.226V23.5743C129.421 10.5544 119.161 0 106.503 0Z" fill="#00005B"/>
<path d="M51.9987 77.6544H31.9436L27.8643 90.7196C27.8074 90.9566 27.6753 91.1669 27.4838 91.3134C27.2923 91.4598 27.0593 91.5343 26.8212 91.521H16.6642C16.0844 91.521 15.8825 91.1935 16.0559 90.5385L33.419 39.3108C33.5925 38.7756 33.7659 38.2511 33.9393 37.5668C34.1671 36.3767 34.2836 35.1652 34.2862 33.9511C34.2732 33.8659 34.281 33.7807 34.3095 33.6981C34.3353 33.6182 34.3794 33.5437 34.4389 33.4825C34.4984 33.4212 34.5709 33.376 34.6485 33.3493C34.7288 33.3227 34.8116 33.3147 34.8944 33.3254H48.6985C49.1023 33.3254 49.3353 33.4745 49.3922 33.7727L69.1004 90.6291C69.2739 91.2255 69.1004 91.5237 68.5802 91.521H57.2921C57.0979 91.5423 56.9038 91.4917 56.7433 91.3772C56.5828 91.2628 56.4689 91.0924 56.4223 90.8953L51.9987 77.6544ZM35.0705 66.6394H48.7891C48.4422 65.4492 48.0359 64.1099 47.5725 62.6216C47.1092 61.1332 46.6174 59.541 46.0971 57.8449C45.5769 56.1489 45.0566 54.4501 44.5337 52.7541C44.0135 51.058 43.5346 49.4206 43.0997 47.8417C42.6649 46.2654 42.274 44.8223 41.9272 43.5097H41.8418C41.3526 45.922 40.7443 48.305 40.0195 50.6533C39.2093 53.3319 38.3836 56.0716 37.545 58.87C36.7038 61.6684 35.8806 64.259 35.0705 66.6394Z" fill="#9999FF"/>
<path d="M101.055 72.5682H83.9505C84.1602 74.3095 84.7218 75.9843 85.5993 77.4886C86.57 78.977 87.9444 80.1405 89.5492 80.8381C91.7261 81.8073 94.0816 82.2812 96.4526 82.2306C98.3344 82.1934 100.208 81.983 102.051 81.5969C103.7 81.368 105.318 80.934 106.866 80.3056C107.156 80.0686 107.301 80.2177 107.301 80.7529V89.2358C107.314 89.4675 107.27 89.6991 107.171 89.9068C107.073 90.0692 106.938 90.2077 106.78 90.3089C105.064 91.0916 103.255 91.6455 101.402 91.957C98.8831 92.4442 96.3231 92.6679 93.7606 92.628C89.6502 92.628 86.205 91.973 83.4276 90.663C80.803 89.4728 78.4837 87.6703 76.6563 85.3938C74.948 83.2504 73.6796 80.7742 72.9238 78.1143C72.1758 75.489 71.7953 72.7679 71.7953 70.0308C71.7875 67.0434 72.2431 64.0746 73.1412 61.2337C74.0084 58.4619 75.3776 55.8872 77.1792 53.6427C78.9548 51.4248 81.1757 49.6275 83.6916 48.3735C86.2387 47.0928 89.249 46.6348 92.7201 46.6348C95.601 46.5603 98.4612 47.138 101.099 48.3309C103.317 49.3027 105.269 50.8204 106.786 52.7481C108.207 54.6358 109.296 56.7685 109.998 59.045C110.681 61.239 111.033 63.5288 111.041 65.8319C111.041 67.1419 110.997 68.3321 110.911 69.4051C110.826 70.4754 110.754 71.2502 110.694 71.7268C110.671 71.9239 110.58 72.1049 110.435 72.238C110.29 72.3685 110.106 72.443 109.912 72.443C109.566 72.443 108.973 72.4883 108.132 72.5762C107.293 72.6667 106.25 72.7253 105.005 72.7546C103.76 72.7865 102.442 72.5682 101.055 72.5682ZM83.9505 64.4341H95.324C96.714 64.4341 97.7416 64.4181 98.4068 64.3888C98.852 64.3435 99.2817 64.1971 99.6648 63.9601V63.4249C99.6467 62.7274 99.5302 62.0351 99.318 61.3721C98.8494 59.8491 97.9073 58.5258 96.6363 57.6046C95.3654 56.686 93.8383 56.22 92.2852 56.2813C90.8253 56.1908 89.3681 56.5396 88.0971 57.2851C86.8262 58.0306 85.7909 59.1409 85.123 60.4801C84.5277 61.7209 84.1317 63.0575 83.9505 64.4341Z" fill="#9999FF"/>
</svg>
