<svg width="130" height="130" viewBox="0 0 130 130" fill="none" xmlns="http://www.w3.org/2000/svg">
<path d="M22.9183 0H106.503C119.175 0 129.421 10.5393 129.421 23.5748V106.225C129.421 119.261 119.175 129.8 106.503 129.8H22.9183C10.2458 129.8 0 119.261 0 106.225V23.5748C0 10.5393 10.2458 0 22.9183 0Z" fill="#330000"/>
<path d="M62.5531 77.6577H42.4929L38.3945 90.6932C38.2867 91.1924 37.8553 91.5252 37.37 91.4698H27.232C26.6388 91.4698 26.477 91.137 26.6388 90.4713L44.0028 39.0505C44.1646 38.4958 44.3263 37.8857 44.542 37.22C44.7577 36.0552 44.8656 34.8348 44.8656 33.6145C44.8117 33.3371 45.0274 33.0598 45.297 33.0043H59.2637C59.6951 33.0043 59.9108 33.1707 59.9647 33.4481L79.6475 90.5822C79.8093 91.1924 79.6475 91.4698 79.1082 91.4698H67.8378C67.4604 91.5252 67.0829 91.2479 66.975 90.8596L62.5531 77.6577ZM45.6205 66.3973H59.3176C58.9941 65.2324 58.5627 63.8457 58.0773 62.4034C57.592 60.9058 57.1067 59.2971 56.6213 57.633C56.0821 55.9134 55.5968 54.2493 55.0575 52.5298C54.5182 50.8102 54.0329 49.2016 53.6015 47.5929C53.1701 46.0398 52.7926 44.5975 52.4152 43.2663H52.3073C51.822 45.6515 51.2288 48.0367 50.4738 50.4219C49.665 53.0845 48.8561 55.858 47.9933 58.6315C47.2383 61.4605 46.4294 64.0675 45.6205 66.3973ZM91.6729 42.7116C89.8933 42.767 88.1677 42.0459 86.8735 40.7701C85.6332 39.3834 84.9861 37.5528 85.0401 35.6669C84.9861 33.7809 85.6872 32.0058 86.9814 30.73C88.2756 29.4542 90.0012 28.7886 91.7807 28.7886C93.8838 28.7886 95.5016 29.4542 96.6879 30.73C97.8743 32.0613 98.5214 33.8364 98.4675 35.6669C98.5214 37.5528 97.8743 39.3834 96.5801 40.7701C95.3398 42.1014 93.5063 42.8225 91.6729 42.7116ZM85.6332 90.8596V48.1476C85.6332 47.5929 85.8489 47.3711 86.3343 47.3711H97.0115C97.4968 47.3711 97.7125 47.6484 97.7125 48.1476V90.8596C97.7125 91.4698 97.4968 91.7471 97.0115 91.7471H86.4421C85.9029 91.7471 85.6332 91.4143 85.6332 90.8596Z" fill="#FF9A00"/>
</svg>
