<svg width="132" height="111" viewBox="0 0 132 111" fill="none" xmlns="http://www.w3.org/2000/svg">
<path d="M40.3608 71.0468C40.3936 72.8042 40.9357 76.2515 41.7571 78.9383C43.482 84.6161 46.4226 89.8715 50.4967 94.5185C54.6858 99.2838 59.8441 103.103 65.7909 105.807C72.0499 108.662 78.8345 110.116 85.882 110.099C92.9296 110.082 99.6978 108.612 105.973 105.739C111.92 103.001 117.078 99.1656 121.267 94.3833C125.341 89.7363 128.266 84.464 130.007 78.7862C130.878 75.9642 131.42 73.0408 131.65 70.0836C131.863 67.194 131.781 64.3044 131.387 61.4317C130.615 55.8214 128.726 50.5492 125.818 45.7331C123.157 41.3227 119.723 37.453 115.649 34.1916L74.4812 1.67928C74.4483 1.64548 74.4155 1.61168 74.3826 1.59479C71.672 -0.5344 67.138 -0.534404 64.1646 1.61168C61.1583 3.77466 60.8133 7.34021 63.491 9.60458H63.4746L80.6416 23.9681L28.3192 24.0188H28.2535C23.933 24.0188 19.7768 26.9422 18.9554 30.6261C18.1176 34.3775 21.0582 37.5037 25.5429 37.5206V37.5375L52.0573 37.4868L4.71256 74.8658C4.64685 74.9165 4.59757 74.9503 4.53186 75.001C0.0635125 78.5158 -1.3657 84.3626 1.44345 88.0634C4.30187 91.8317 10.3637 91.8317 14.8813 88.0803L40.7058 66.3322C40.7058 66.3491 40.3279 69.2894 40.3608 71.0468ZM106.729 80.8647C101.406 86.4411 93.9645 89.6011 85.8985 89.618C77.8324 89.6349 70.3743 86.4918 65.0517 80.9323C62.4561 78.2117 60.534 75.1024 59.3512 71.7734C58.2013 68.4951 57.7413 65.0141 58.037 61.5499C58.3163 58.1703 59.2855 54.8751 60.8954 51.9179C62.4561 49.0114 64.5917 46.3922 67.2365 44.1785C72.4113 39.8356 78.9988 37.4868 85.882 37.4868C92.7817 37.4868 99.3528 39.8018 104.528 44.1278C107.156 46.3415 109.308 48.9438 110.852 51.8503C112.446 54.8244 113.431 58.1027 113.711 61.4824C114.006 64.9465 113.563 68.4445 112.396 71.7227C111.23 75.0179 109.324 78.1441 106.729 80.8647Z" fill="#FF7021"/>
<path d="M106.729 80.8647C101.406 86.4411 93.9645 89.6011 85.8985 89.618C77.8324 89.6349 70.3743 86.4918 65.0517 80.9323C62.4561 78.2117 60.534 75.1024 59.3512 71.7734C58.2013 68.4951 57.7413 65.0141 58.037 61.5499C58.3163 58.1703 59.2855 54.8751 60.8954 51.9179C62.4561 49.0114 64.5917 46.3922 67.2365 44.1785C72.4113 39.8356 78.9988 37.4868 85.882 37.4868C92.7817 37.4868 99.3528 39.8018 104.528 44.1278C107.156 46.3415 109.308 48.9438 110.852 51.8503C112.446 54.8244 113.431 58.1027 113.711 61.4824C114.006 64.9465 113.563 68.4445 112.396 71.7227C111.23 75.0179 109.324 78.1441 106.729 80.8647Z" fill="white"/>
<path d="M68.6821 61.9046C68.9285 57.3928 71.0805 53.4048 74.3168 50.5827C77.5038 47.8114 81.7914 46.1216 86.4569 46.1216C91.1388 46.1216 95.41 47.8114 98.597 50.5827C101.833 53.4048 103.985 57.3928 104.248 61.9046C104.495 66.5516 102.687 70.8607 99.5005 74.0545C96.2642 77.2989 91.6316 79.3436 86.4569 79.3436C81.2822 79.3436 76.666 77.2989 73.4133 74.0545C70.2591 70.8607 68.4357 66.5516 68.6821 61.9046Z" fill="#005385"/>
</svg>
