<svg width="127" height="130" viewBox="0 0 127 130" fill="none" xmlns="http://www.w3.org/2000/svg">
<path d="M126.189 121.54V52.646C126.189 49.3419 124.274 46.3552 121.323 45.0537L47.4023 12.4648C46.403 12.0246 45.3259 11.7969 44.2385 11.7969H8.03021C3.59524 11.7969 0 15.4951 0 20.0571V56.4953C0 58.1274 0.47034 59.7227 1.35137 61.0808L43.5523 126.122C45.0414 128.418 47.548 129.797 50.2313 129.797L118.159 129.8C122.594 129.8 126.189 126.102 126.189 121.54Z" fill="url(#paint0_linear_37_233)"/>
<path d="M114.717 29.4478V8.26023C114.717 3.69822 111.122 0 106.687 0H80.8721C80.4926 0 80.1128 0.0283215 79.7364 0.0826017L6.89451 10.7867C2.93792 11.3672 0 14.8531 0 18.9631V50.7507C0 55.3139 3.59639 59.0121 8.0325 59.0111L44.5849 59.0016C45.4475 59.0016 46.3044 58.8588 47.1223 58.5779L109.227 37.283C112.506 36.1586 114.717 33.0032 114.717 29.4478Z" fill="url(#paint1_linear_37_233)"/>
<path d="M114.716 32.3446L114.713 8.25905C114.713 3.69822 111.118 0 106.683 0H83.9951C81.6515 0 79.4237 1.05377 77.898 2.88399L13.405 80.2823C12.1581 81.7797 11.472 83.6868 11.472 85.6586V109.744C11.472 114.306 15.0673 118.004 19.5023 118.004H42.1932C44.537 118.004 46.7648 116.951 48.2905 115.12L112.783 37.7221C114.032 36.2247 114.716 34.3176 114.716 32.3446Z" fill="#FF318C"/>
<path d="M102.528 24.3384H23.6604V105.466H102.528V24.3384Z" fill="black"/>
<path d="M39.5173 63.181C41.8033 64.5359 44.3553 65.2151 47.1731 65.2151V65.2129C49.5561 65.2129 51.7441 64.7583 53.7349 63.8497C55.7257 62.9411 57.3798 61.6733 58.6981 60.0426C60.0297 58.3982 60.9209 56.516 61.3693 54.3962H55.354C54.9607 55.4914 54.3727 56.4592 53.5874 57.2948C52.8155 58.1177 51.8838 58.7527 50.7898 59.1989C49.6968 59.6451 48.5049 59.87 47.2149 59.87C45.4764 59.87 43.9057 59.4238 42.5041 58.529C41.1014 57.6344 40.0006 56.4093 39.2019 54.8517C38.4165 53.2813 38.0244 51.5127 38.0244 49.5517C38.0244 47.5908 38.4165 45.8304 39.2019 44.2727C40.0018 42.7011 41.1026 41.4679 42.5041 40.5733C43.9057 39.6785 45.4764 39.2323 47.2149 39.2323C48.5038 39.2323 49.6959 39.4572 50.7898 39.9034C51.8838 40.3496 52.8155 40.9927 53.5874 41.8284C54.3727 42.6512 54.9607 43.6109 55.354 44.7061H61.3693C60.9198 42.5865 60.0297 40.7124 58.6981 39.0818C57.3798 37.4371 55.7257 36.1612 53.7349 35.2526C51.7441 34.344 49.5561 33.8896 47.1731 33.8896C44.3541 33.8896 41.8021 34.5733 39.5173 35.9444C37.2311 37.2992 35.4365 39.1755 34.1328 41.5687C32.8293 43.9482 32.1769 46.6092 32.1769 49.5517C32.1769 52.4943 32.8293 55.1634 34.1328 57.5567C35.4375 59.9359 37.2323 61.81 39.5173 63.181Z" fill="white"/>
<path d="M71.2132 59.3728V34.4077H65.4929V64.6947H85.1784V59.3728H71.2132Z" fill="white"/>
<path d="M33.4979 89.2183H65.0452V95.3028H33.4979V89.2183Z" fill="white"/>
<defs>
<linearGradient id="paint0_linear_37_233" x1="7.8501" y1="8.56004" x2="126.868" y2="124.262" gradientUnits="userSpaceOnUse">
<stop offset="0.29" stop-color="#009AE5"/>
<stop offset="0.7" stop-color="#00D980"/>
</linearGradient>
<linearGradient id="paint1_linear_37_233" x1="111.162" y1="-1.45498" x2="4.38985" y2="46.6697" gradientUnits="userSpaceOnUse">
<stop offset="0.3" stop-color="#FF318C"/>
<stop offset="0.54" stop-color="#009AE5"/>
</linearGradient>
</defs>
</svg>
