<svg width="131" height="131" viewBox="0 0 131 131" fill="none" xmlns="http://www.w3.org/2000/svg">
<path d="M129.565 0.5H0.5V130.3H129.565V0.5Z" fill="black" stroke="black" stroke-miterlimit="10"/>
<path d="M112.23 7.00537H17.9165V97.8118H112.23V7.00537Z" fill="white" stroke="black" stroke-miterlimit="10"/>
<path d="M21.5851 10.4243H63.8637C63.8637 10.4243 61.5048 12.1817 60.991 14.412C60.4771 16.6422 60.5834 18.2302 60.9649 19.2918C60.9649 19.2918 60.9649 19.8226 60.6657 20.2106C60.3665 20.5987 60.3947 19.4033 59.0136 19.4858C57.6325 19.5683 55.7072 19.1245 53.1336 23.8905C53.1336 23.8905 52.2924 26.094 52.158 27.9897C52.0236 29.8854 51.8588 32.4769 52.1038 33.146C52.3488 33.8151 49.476 33.6478 49.476 33.6478C49.476 33.6478 48.7432 33.8441 48.7171 34.1496C48.6911 34.4552 48.7171 36.0721 48.7432 36.9932C48.7692 37.9143 48.5524 38.4428 48.4721 39.3082C48.3919 40.1735 47.8477 40.9541 47.9301 41.9287C48.0125 42.9033 49.502 42.9591 50.3693 43.0438C51.2365 43.1286 51.1541 43.3226 50.6685 43.4631C50.1828 43.6036 48.7432 43.6304 48.7995 45.4146C48.8559 47.1988 49.3958 51.4362 49.5324 52.5781C49.669 53.72 48.6911 52.6896 48.7995 53.0241C48.9079 53.3587 48.4201 52.8279 48.1231 54.1125C47.826 55.3971 48.2055 55.1719 48.3399 55.3391C48.4743 55.5064 48.6391 55.5064 48.6391 55.5064L48.2315 56.0907L48.0971 56.7598L48.3139 57.2326L48.5307 57.4289C48.5307 57.4289 47.9886 58.0422 48.5567 58.7113C49.1248 59.3803 48.8559 59.0726 48.7995 59.7149C48.7432 60.3572 47.6071 65.1232 47.9063 67.2129C48.2055 69.3027 47.2016 69.945 46.768 70.8661C46.3344 71.7872 43.815 75.8284 43.9234 76.7762C44.0318 77.7241 43.6806 78.7277 43.4074 79.2562C43.1342 79.7848 41.9439 81.0404 41.9981 82.3518C42.0523 83.6632 42.1325 83.8572 42.7309 84.4148C42.7309 84.4148 42.2149 86.2257 42.0263 86.9796C41.8376 87.7334 41.1048 90.6862 40.9682 91.217C40.8316 91.7478 40.5888 92.7514 40.669 93.28L40.5866 93.503H21.5894V10.4243H21.5851Z" fill="#1D2C49" stroke="#1D2C49" stroke-miterlimit="10"/>
<path d="M47.1407 93.5012H69.7718C69.7718 93.5012 69.9626 90.7402 70.5848 89.4868C71.2071 88.2334 71.0726 86.699 71.0184 85.6953C70.9642 84.6917 71.1008 82.9343 70.3138 82.4883L70.1794 81.2616C70.1794 81.2616 69.3945 79.4217 69.6113 78.9466C69.5571 78.4158 69.3945 73.9286 69.3945 73.9286C69.3945 73.9286 69.6373 73.0923 70.0991 72.7577C70.2336 72.3384 70.342 69.9142 69.8563 69.4124C69.4227 68.9106 69.0975 68.9396 68.1218 68.828C67.1461 68.7165 67.6882 69.8584 64.3276 64.5058C63.7595 63.5022 63.1611 62.5544 62.8923 62.1908C62.6234 61.8273 62.2158 61.8295 61.5914 61.7716C60.967 61.7136 60.8867 61.6868 60.3447 60.6564C59.8027 59.6261 59.8027 59.6261 59.8027 59.6261C59.8027 59.6261 59.6639 59.3473 59.111 61.1025C58.556 62.8599 57.9879 61.1025 56.9039 65.4782C56.2274 66.9546 56.171 67.1241 56.0626 69.1024C55.7916 70.106 55.2214 70.3558 54.6273 70.7483C54.0333 71.1408 53.9509 72.2247 53.7341 72.5057C53.5172 72.7867 52.65 72.7845 52.1903 74.4572C51.7307 76.1298 51.6483 75.153 52.108 76.7142C52.108 76.7142 51.4315 79.3905 51.0239 80.0038C50.6163 80.6171 49.9658 82.3188 49.7772 83.0993C49.5886 83.8799 48.7473 84.9951 48.1251 85.1066C47.5028 85.2181 46.7982 87.5598 46.7158 88.2021C46.6334 88.8444 46.3906 92.2723 46.7158 92.7741C46.8979 93.2782 47.1407 93.5012 47.1407 93.5012Z" fill="#1D2C49" stroke="#1D2C49" stroke-miterlimit="10"/>
<path d="M69.8803 10.4243H81.1286H108.655V93.5008H91.6701H83.2404H83.0366C83.0366 93.5008 82.8198 93.3335 82.629 92.8049C82.4382 92.2764 80.1768 91.3553 79.4982 91.1746C78.8196 90.994 77.4797 88.7214 77.0179 88.2329C76.7186 87.7869 76.6926 87.439 76.6926 87.439L76.4346 82.9227C76.4346 82.9227 76.3934 82.5882 76.5972 82.3518C76.801 82.1154 77.1653 81.5155 77.1263 81.027C77.0872 80.5386 76.9094 78.5604 76.801 78.3084C76.6926 78.0564 76.7338 77.6393 76.7186 77.4163C76.7035 77.1933 76.9767 76.5376 77.0439 76.3012C77.1111 76.0648 77.7355 71.1292 77.6813 70.8103C77.6271 70.4914 77.6553 67.9668 77.2477 67.7014C76.8401 67.436 77.1653 66.2651 77.0309 66.071C76.8964 65.877 76.4064 66.1402 76.2308 65.4867C76.0552 64.8333 74.1971 60.3438 74.1971 60.3438L72.9634 57.7233C72.9634 57.7233 69.6288 52.8033 69.2364 52.4264C68.844 52.0495 68.7486 49.6944 69.102 49.0945C69.4532 48.4945 69.631 49.1926 69.67 49.1926C69.7091 49.1926 70.6197 49.7925 71.0121 49.3732C71.4045 48.954 72.4344 47.3103 72.4474 46.6836C72.4604 46.0569 72.7466 39.839 72.5558 39.5468C72.4886 39.2546 72.326 38.2087 71.2419 37.8184C70.1579 37.4281 71.268 37.011 71.2419 36.4245C71.2159 35.8379 71.0511 35.4209 71.4457 35.6996C71.8403 35.9784 76.2829 38.5142 76.8661 38.5989C77.4493 38.6837 77.5577 38.6971 77.9632 38.6971C78.3686 38.6971 78.8434 39.2123 79.0212 39.1431C79.212 39.1431 79.8885 39.1699 81.352 37.9165C82.8154 36.6631 83.0604 36.8014 83.4117 35.519C83.7629 34.2366 83.6545 32.41 84.4285 32.216C85.2026 32.022 85.8638 32.7312 85.066 30.1107C84.6865 27.5882 84.7819 27.4767 85.1332 27.4477C85.4454 27.2805 85.35 27.3228 86.0546 26.5133C86.7593 25.7037 86.7723 25.6635 86.8135 25.5788C86.8547 25.4941 86.8547 25.2175 86.8547 25.2175C86.8547 25.2175 87.0715 25.0792 87.1387 25.0212C87.2059 24.9633 87.5463 24.854 87.6135 24.854C87.6807 24.854 87.5051 24.6577 87.8303 24.6443C89.0488 24.6443 95.1348 24.6867 95.1348 24.6867V23.9753C95.1348 23.9753 95.1478 23.7389 95.2974 23.7522C95.447 23.7656 95.5684 23.779 95.6226 23.8504C95.6768 23.9195 97.1403 23.8927 97.1403 23.8927C97.1403 23.8927 97.3983 23.6563 97.858 23.6563C98.3176 23.6563 102.385 23.6697 102.385 23.6697C102.385 23.6697 102.48 24.06 102.684 24.06C102.888 24.06 103.226 24.1158 103.213 23.8927C103.89 23.8927 105.652 23.8794 105.652 23.8794C105.652 23.8794 105.748 23.8794 105.735 23.2794C105.748 22.7642 105.761 22.8468 104.042 22.8468C103.417 22.8468 103.296 22.8334 103.296 22.8334C103.296 22.8334 103.391 22.6104 102.996 22.6104C102.602 22.6104 102.413 22.82 102.413 22.9449C102.413 23.0698 102.238 23.0564 102.238 23.0564L97.6325 23.0118C97.6325 23.0118 97.4027 22.985 97.4829 22.287C97.5631 21.5889 97.2921 21.3101 97.0753 21.464C96.8585 21.6179 96.6959 21.687 96.6677 21.7294C96.6417 21.7718 96.4248 21.5064 96.3967 21.27C96.3706 21.0336 96.3555 18.7743 96.3555 18.732C96.3555 18.6896 96.234 18.3551 96.0844 18.4532C95.9348 18.5513 95.6768 18.4108 95.6378 18.5781C95.5988 18.7453 95.6248 21.8387 95.6248 21.8387C95.6248 21.8387 95.382 22.0349 95.2454 21.8119C95.1088 21.5889 94.9744 21.7138 95.0025 21.4506C95.0286 21.1852 94.8399 20.9912 94.8399 20.9912H77.3322C77.3322 20.9912 77.278 20.1259 77.1414 20.1838C77.0048 20.2418 76.0834 20.2686 76.0834 20.2686L76.0574 18.8457C76.0574 18.8457 75.975 18.4264 75.6779 18.6784C75.4069 18.7052 75.4351 19.9318 75.4069 20.0723C75.3787 20.2128 75.1641 20.2106 75.1641 20.2106V20.7124L74.1884 20.8239C74.1884 20.8239 72.8615 21.0737 72.6707 21.2142C72.4799 21.3547 71.7775 21.4105 71.7775 21.4105L71.4522 21.4662C71.4522 21.4662 71.2354 20.8529 71.2354 20.7704C71.2354 20.6879 71.2094 20.1013 71.2094 20.1013C71.2094 20.1013 71.2636 20.3244 71.1552 19.9341C71.0468 19.5438 71.101 19.2092 71.101 19.2092C71.101 19.2092 72.8095 18.5669 73.1065 18.0094C73.4036 17.4518 73.4057 15.3331 73.1325 14.4677C72.8594 13.6024 72.6989 13.3526 72.6989 13.1296C72.6989 12.9066 72.6165 12.1817 72.6165 12.1817C72.6165 12.1817 71.5585 11.6242 71.0446 11.4569C70.5308 11.2896 69.7698 10.7031 69.7698 10.7031L69.8803 10.4243Z" fill="#FFA500" stroke="#FFA500" stroke-miterlimit="10"/>
<path d="M37.2498 118.128H22.7775V107.98H37.2498C37.2498 107.98 37.1414 105.054 34.4053 104.189C33.8372 104.05 32.7249 104.05 32.0203 104.05C31.3157 104.05 21.6956 104.05 21.6956 104.05C21.6956 104.05 18.1182 104.358 18.064 108.091C18.0098 111.825 18.064 118.128 18.064 118.128C18.064 118.128 17.6564 122.309 23.7836 122.309C29.9107 122.309 33.2149 122.309 33.2149 122.309C33.2149 122.309 35.9793 122.198 37.1176 119.437C37.3322 118.685 37.2498 118.128 37.2498 118.128Z" fill="white" stroke="black" stroke-miterlimit="10"/>
<path d="M44.4946 122.309H56.3825C56.3825 122.309 60.3935 122.013 60.4304 118.183C60.5648 113.359 60.4044 110.935 54.3227 111.158C47.285 111.158 46.047 111.158 46.047 111.158H45.0344V107.851H60.1399C60.1399 107.851 59.923 104.041 55.9835 104.05C52.044 104.059 44.4924 104.05 44.4924 104.05C44.4924 104.05 40.6266 104.171 40.6266 107.851C40.6266 111.531 40.6266 111.531 40.6266 111.531C40.6266 111.531 40.2298 115.137 45.9754 115.173C51.721 115.21 56.1288 115.135 56.1288 115.135V118.331L40.6201 118.257C40.6201 118.257 40.915 120.637 42.4327 121.491C43.0116 121.863 44.1672 122.309 44.1672 122.309" fill="white"/>
<path d="M44.4946 122.309H56.3825C56.3825 122.309 60.3935 122.013 60.4304 118.183C60.5648 113.359 60.4044 110.935 54.3227 111.158C47.285 111.158 46.047 111.158 46.047 111.158H45.0344V107.851H60.1399C60.1399 107.851 59.923 104.041 55.9835 104.05C52.044 104.059 44.4924 104.05 44.4924 104.05C44.4924 104.05 40.6266 104.171 40.6266 107.851C40.6266 111.531 40.6266 111.531 40.6266 111.531C40.6266 111.531 40.2298 115.137 45.9754 115.173C51.721 115.21 56.1288 115.135 56.1288 115.135V118.331L40.6201 118.257C40.6201 118.257 40.915 120.637 42.4327 121.491C43.0116 121.863 44.1672 122.309 44.1672 122.309" stroke="black" stroke-miterlimit="10"/>
<path d="M66.3746 108.399H63.53V111.41H66.3746V108.399Z" fill="white" stroke="black" stroke-miterlimit="10"/>
<path d="M66.4114 114.717H63.5668V117.895H66.4114V114.717Z" fill="white" stroke="black" stroke-miterlimit="10"/>
<path d="M89.1768 107.775H73.1586V118.759H85.3544L85.3283 114.883L79.34 114.856C79.34 114.856 77.4146 114.521 76.6558 113.072C76.1398 111.734 75.7625 111.76 76.8726 111.76C77.9827 111.76 89.1768 111.845 89.1768 111.845V118.563C89.1768 118.563 89.2592 122.354 85.1918 122.381C81.1243 122.407 73.835 122.381 73.835 122.381L72.5884 122.394C72.5884 122.394 69.9866 121.935 69.3622 119.343C69.3622 116.805 69.3622 107.773 69.3622 107.773C69.3622 107.773 69.579 104.178 73.1022 104.12C76.6254 104.062 85.7316 104.12 85.7316 104.12C85.7316 104.12 87.4661 104.481 88.225 105.431C88.767 106.435 89.1746 106.936 89.1746 107.242C89.1768 107.552 89.1768 107.775 89.1768 107.775Z" fill="white" stroke="black" stroke-miterlimit="10"/>
<path d="M97.0167 104.024H107.532C107.532 104.024 111.797 103.799 111.832 108.221C111.866 112.644 111.832 117.403 111.832 117.403C111.832 117.403 112.445 122.334 106.52 122.323C100.594 122.31 97.8839 122.323 97.8839 122.323C97.8839 122.323 92.572 122.867 92.6088 117.813C92.6457 112.758 92.6088 107.889 92.6088 107.889C92.6088 107.889 92.9341 105.993 93.7298 105.286C94.5255 104.579 95.1759 104.245 95.5011 104.209C95.9044 104.066 96.2231 104.024 96.2231 104.024H97.0167Z" fill="white" stroke="black" stroke-miterlimit="10"/>
<path d="M108.148 107.404H96.5114V118.779H108.148V107.404Z" fill="black" stroke="black" stroke-miterlimit="10"/>
</svg>
