<svg width="135" height="130" viewBox="0 0 135 130" fill="none" xmlns="http://www.w3.org/2000/svg">
<mask id="mask0_37_198" style="mask-type:luminance" maskUnits="userSpaceOnUse" x="0" y="0" width="135" height="130">
<path d="M134.593 0H0V129.8H134.593V0Z" fill="white"/>
</mask>
<g mask="url(#mask0_37_198)">
<path d="M122.571 42.4918C119.973 36.0682 114.713 29.1467 110.598 26.9557C113.535 32.8149 115.568 39.0891 116.633 45.5791L116.649 45.6787C109.904 28.3831 98.4633 21.3952 89.1204 6.20758C88.6525 5.44405 88.1684 4.66393 87.7166 3.8506C87.4584 3.38584 87.2486 2.97088 87.055 2.58912C86.6677 1.80899 86.3611 0.995665 86.1675 0.165742C86.1675 0.132545 86.1514 0.0827495 86.1352 0.066151C86.103 0.0329541 86.0707 0.0163551 86.0384 0.0163551C86.0061 -0.000243366 85.9577 -0.000243366 85.9255 0.0163551C85.9255 0.0163551 85.9093 0.0329546 85.8932 0.0329546C85.8771 0.0329546 85.8609 0.0495528 85.8448 0.0495528L85.8609 0.0163551C70.8703 9.04592 65.7874 25.7606 65.3195 34.1096C59.3329 34.5412 53.6045 36.7985 48.8928 40.6162C48.4087 40.1846 47.8923 39.7863 47.3598 39.4211C46.0044 34.5246 45.9398 29.3458 47.1985 24.4161C41.696 27.1548 36.8067 31.0389 32.8372 35.8358H32.8049C30.4329 32.7485 30.6104 22.5903 30.7395 20.4657C30.0456 20.7478 29.3679 21.113 28.7547 21.5612C26.6731 23.0882 24.7206 24.8145 22.9295 26.7067C20.8802 28.8313 19.0245 31.1385 17.3464 33.595C13.5059 39.1887 10.7951 45.5127 9.34279 52.1853L9.26211 52.5837C9.14916 53.1314 8.74575 55.8204 8.68121 56.4179C8.68121 56.4677 8.66507 56.5009 8.66507 56.5507C8.14871 59.3393 7.82599 62.1776 7.6969 65.0159V65.3313C7.71304 80.7015 13.3284 95.5073 23.4459 106.811C33.5633 118.131 47.4244 125.119 62.3181 126.43C77.2119 127.742 92.025 123.243 103.853 113.849C115.681 104.454 123.652 90.8432 126.185 75.7054C126.282 74.9086 126.363 74.1285 126.46 73.3318C127.67 62.8747 126.331 52.2683 122.571 42.4918ZM53.7982 90.5444C54.0725 90.6772 54.3307 90.8266 54.6211 90.9593L54.6695 90.9925C54.3791 90.8431 54.0886 90.6938 53.7982 90.5444Z" fill="url(#paint0_linear_37_198)"/>
<path d="M122.571 42.4922C119.973 36.0686 114.713 29.1471 110.598 26.9561C113.535 32.8153 115.568 39.0895 116.633 45.5795V45.6459L116.649 45.7123C121.248 59.2567 120.586 74.0957 114.793 87.1421C107.951 102.23 91.3957 117.7 65.497 116.953C37.5006 116.14 12.8444 94.7608 8.22939 66.7758C7.39031 62.3606 8.22939 60.1198 8.64894 56.5345C8.06803 59.3231 7.74531 62.1614 7.6969 64.9997V65.3151C7.71304 80.6853 13.3284 95.4911 23.4459 106.795C33.5633 118.115 47.4244 125.103 62.3181 126.414C77.2119 127.725 92.025 123.227 103.853 113.832C115.681 104.438 123.652 90.8269 126.185 75.6891C126.282 74.8924 126.363 74.1123 126.46 73.3156C127.67 62.8751 126.331 52.2687 122.571 42.4922Z" fill="url(#paint1_radial_37_198)"/>
<path d="M122.571 42.4922C119.973 36.0686 114.713 29.1471 110.598 26.9561C113.535 32.8153 115.568 39.0895 116.633 45.5795V45.6459L116.649 45.7123C121.248 59.2567 120.586 74.0957 114.793 87.1421C107.951 102.23 91.3957 117.7 65.497 116.953C37.5006 116.14 12.8444 94.7608 8.22939 66.7758C7.39031 62.3606 8.22939 60.1198 8.64894 56.5345C8.06803 59.3231 7.74531 62.1614 7.6969 64.9997V65.3151C7.71304 80.6853 13.3284 95.4911 23.4459 106.795C33.5633 118.115 47.4244 125.103 62.3181 126.414C77.2119 127.725 92.025 123.227 103.853 113.832C115.681 104.438 123.652 90.8269 126.185 75.6891C126.282 74.8924 126.363 74.1123 126.46 73.3156C127.67 62.8751 126.331 52.2687 122.571 42.4922Z" fill="url(#paint2_radial_37_198)"/>
<path d="M93.5741 49.7119C93.7032 49.8115 93.8162 49.8945 93.9453 49.9941C92.4446 47.2553 90.5728 44.749 88.4105 42.558C69.87 23.4697 83.5535 1.19461 85.861 0.049311L85.8771 0.0161133C70.8866 9.04568 65.8036 25.7603 65.3357 34.1094C66.0296 34.0596 66.7234 33.9932 67.4334 33.9932C72.7584 34.0098 77.9704 35.4538 82.5692 38.2258C87.1519 40.9811 90.9439 44.9482 93.5741 49.7119Z" fill="url(#paint3_radial_37_198)"/>
<path d="M67.4655 53.5134C67.3687 55.0405 62.1244 60.3022 60.2849 60.3022C43.3096 60.3022 40.5664 70.8588 40.5664 70.8588C41.3248 79.7556 47.3436 87.0755 54.6211 90.943C54.9599 91.1256 55.2988 91.2749 55.6215 91.4409C56.2024 91.7065 56.7833 91.9555 57.3804 92.1713C59.8815 93.0842 62.4956 93.5987 65.1419 93.7149C94.8811 95.1424 100.642 57.1319 79.1805 46.0939C84.2473 45.4134 89.3786 46.6915 93.574 49.6792C90.9599 44.9154 87.1518 40.965 82.5529 38.1931C77.9541 35.4377 72.7421 33.977 67.4171 33.9604C66.7071 33.9604 66.0133 34.0268 65.3194 34.0766C59.3329 34.4916 53.6045 36.7656 48.8927 40.5832C49.7963 41.38 50.8291 42.4257 52.9913 44.6333C57.0577 48.7663 67.4333 53.0155 67.4655 53.5134Z" fill="url(#paint4_radial_37_198)"/>
<path d="M67.4655 53.5134C67.3687 55.0405 62.1244 60.3022 60.2849 60.3022C43.3096 60.3022 40.5664 70.8588 40.5664 70.8588C41.3248 79.7556 47.3436 87.0755 54.6211 90.943C54.9599 91.1256 55.2988 91.2749 55.6215 91.4409C56.2024 91.7065 56.7833 91.9555 57.3804 92.1713C59.8815 93.0842 62.4956 93.5987 65.1419 93.7149C94.8811 95.1424 100.642 57.1319 79.1805 46.0939C84.2473 45.4134 89.3786 46.6915 93.574 49.6792C90.9599 44.9154 87.1518 40.965 82.5529 38.1931C77.9541 35.4377 72.7421 33.977 67.4171 33.9604C66.7071 33.9604 66.0133 34.0268 65.3194 34.0766C59.3329 34.4916 53.6045 36.7656 48.8927 40.5832C49.7963 41.38 50.8291 42.4257 52.9913 44.6333C57.0577 48.7663 67.4333 53.0155 67.4655 53.5134Z" fill="url(#paint5_radial_37_198)"/>
<path d="M46.1176 38.5745C46.6017 38.8899 47.0051 39.1721 47.3439 39.421C45.9885 34.5245 45.9239 29.3458 47.1826 24.416C41.6801 27.1548 36.7908 31.0388 32.8213 35.8358C33.1117 35.8358 41.7769 35.6698 46.1176 38.5745Z" fill="url(#paint6_radial_37_198)"/>
<path d="M8.22953 66.7755C12.8445 94.7606 37.5007 116.139 65.4971 116.953C91.4119 117.7 107.968 102.23 114.793 87.1419C120.586 74.0955 121.248 59.2564 116.649 45.7121V45.6457C116.649 45.5959 116.633 45.5793 116.649 45.5793L116.665 45.6789C118.779 59.8872 111.76 73.6639 100.771 82.9756L100.739 83.0586C79.3259 101.002 58.8328 93.8808 54.6858 90.9761C54.3954 90.8267 54.1049 90.6773 53.8145 90.5279C41.325 84.3865 36.1775 72.6846 37.2748 62.6591C34.3057 62.7089 31.4012 61.8624 28.8839 60.2357C26.3828 58.6091 24.3819 56.2687 23.1394 53.5134C26.4151 51.4552 30.1587 50.2767 33.9991 50.1273C37.8396 49.9613 41.6477 50.8244 45.0847 52.6171C52.1524 55.9201 60.1883 56.2355 67.4819 53.53C67.4657 53.032 57.074 48.7828 53.0238 44.683C50.8615 42.492 49.8288 41.4297 48.9252 40.633C48.4411 40.2014 47.9247 39.803 47.3922 39.4379C47.0372 39.1889 46.6338 38.9233 46.1659 38.5913C41.8091 35.6866 33.16 35.836 32.8696 35.8526H32.8373C30.4653 32.7653 30.6428 22.607 30.7719 20.4824C30.078 20.7646 29.4003 21.1298 28.7871 21.5779C26.7055 23.105 24.7531 24.8312 22.9619 26.7234C20.9126 28.8481 19.0408 31.1386 17.3626 33.5952C13.5222 39.1889 10.8113 45.5129 9.35906 52.1855C9.31066 52.3017 7.19681 61.8292 8.22953 66.7755Z" fill="url(#paint7_radial_37_198)"/>
<path d="M88.3944 42.5582C90.5728 44.7658 92.4446 47.2722 93.9292 49.9943C94.2519 50.2433 94.5585 50.5089 94.8167 50.7413C108.339 63.5719 101.255 81.6974 100.723 82.9921C111.744 73.6803 118.763 59.9202 116.649 45.6953C109.904 28.3831 98.4635 21.4118 89.1206 6.22418C88.6526 5.46066 88.1685 4.68053 87.7167 3.8672C87.4585 3.40244 87.2488 2.98748 87.0551 2.60572C86.6679 1.82559 86.3613 1.01227 86.1676 0.182342C86.1676 0.149145 86.1515 0.0993498 86.1354 0.0827513C86.1031 0.0495544 86.0708 0.0329567 86.0386 0.0329567C86.0063 0.0163582 85.9579 0.0163582 85.9256 0.0329567C85.9256 0.0329567 85.9095 0.0495549 85.8933 0.0495549C85.8772 0.0495549 85.8611 0.0661531 85.8449 0.0661531C83.5374 1.17825 69.8539 23.47 88.3944 42.5582Z" fill="url(#paint8_radial_37_198)"/>
<path d="M94.8325 50.7418C94.5744 50.4928 94.2678 50.2438 93.945 49.9948C93.8159 49.8953 93.703 49.8123 93.5739 49.7127C89.3785 46.7249 84.2471 45.4469 79.1804 46.1274C100.642 57.1654 94.8809 95.1759 65.1418 93.7484C62.4955 93.6322 59.8814 93.1177 57.3803 92.2047C56.7994 91.9724 56.2185 91.74 55.6214 91.4744C55.2826 91.3084 54.9437 91.159 54.621 90.9765L54.6694 91.0097C58.8164 93.9144 79.3095 101.035 100.722 83.0922L100.755 83.0092C101.271 81.6979 108.371 63.5558 94.8325 50.7418Z" fill="url(#paint9_radial_37_198)"/>
<path d="M40.5666 70.8757C40.5666 70.8757 43.3259 60.3191 60.2851 60.3191C62.1246 60.3191 67.3689 55.0574 67.4657 53.5304C60.1721 56.2525 52.1363 55.9205 45.0686 52.6174C41.6477 50.8248 37.8234 49.9783 33.983 50.1277C30.1426 50.2937 26.399 51.4555 23.1233 53.5138C24.3658 56.2857 26.3667 58.6261 28.8678 60.2361C31.3689 61.8628 34.2896 62.6927 37.2587 62.6595C36.1453 72.7016 41.3089 84.4035 53.7983 90.5283C54.0726 90.6611 54.3308 90.8105 54.6213 90.9433C47.3277 87.0759 41.325 79.7559 40.5666 70.8757Z" fill="url(#paint10_radial_37_198)"/>
<path d="M122.571 42.4918C119.973 36.0682 114.713 29.1467 110.598 26.9557C113.535 32.8149 115.568 39.0891 116.633 45.5791L116.649 45.6787C109.904 28.3831 98.4633 21.3952 89.1204 6.20758C88.6525 5.44405 88.1684 4.66393 87.7166 3.8506C87.4584 3.38584 87.2486 2.97088 87.055 2.58912C86.6677 1.80899 86.3611 0.995665 86.1675 0.165742C86.1675 0.132545 86.1514 0.0827495 86.1352 0.066151C86.103 0.0329541 86.0707 0.0163551 86.0384 0.0163551C86.0061 -0.000243366 85.9577 -0.000243366 85.9255 0.0163551C85.9255 0.0163551 85.9093 0.0329546 85.8932 0.0329546C85.8771 0.0329546 85.8609 0.0495528 85.8448 0.0495528L85.8609 0.0163551C70.8703 9.04592 65.7874 25.7606 65.3195 34.1096C66.0133 34.0598 66.7072 33.9934 67.4172 33.9934C72.7421 34.01 77.9542 35.4541 82.553 38.226C87.1518 40.9814 90.9438 44.9484 93.5741 49.7122C89.3786 46.7244 84.2473 45.4464 79.1805 46.1269C100.642 57.1649 94.8811 95.1754 65.142 93.7479C62.4956 93.6317 59.8815 93.1171 57.3804 92.2042C56.7995 91.9719 56.2186 91.7395 55.6216 91.4739C55.2827 91.3079 54.9439 91.1585 54.6211 90.976L54.6695 91.0091C54.3791 90.8598 54.0886 90.7104 53.7982 90.561C54.0725 90.6938 54.3307 90.8432 54.6211 90.976C47.3275 87.1085 41.3249 79.772 40.5664 70.8918C40.5664 70.8918 43.3257 60.3352 60.285 60.3352C62.1245 60.3352 67.3688 55.0735 67.4656 53.5464C67.4494 53.0485 57.0577 48.7992 53.0075 44.6994C50.8452 42.5084 49.8125 41.4461 48.9089 40.6494C48.4248 40.2178 47.9084 39.8195 47.3759 39.4543C46.0205 34.5578 45.956 29.379 47.2146 24.4493C41.7121 27.188 36.8228 31.0721 32.8533 35.869H32.821C30.449 32.7817 30.6265 22.6235 30.7556 20.4989C30.0617 20.781 29.384 21.1462 28.7708 21.5944C26.6893 23.1214 24.7368 24.8477 22.9457 26.7399C20.8964 28.8645 19.0407 31.1717 17.3625 33.6283C13.5221 39.2219 10.8112 45.5459 9.35893 52.2185L9.27825 52.6169C9.1653 53.1646 8.66507 55.9034 8.58439 56.4843C8.58439 56.4345 8.58439 56.5341 8.58439 56.4843C8.11644 59.3227 7.82599 62.1776 7.6969 65.0491V65.3645C7.71304 80.7347 13.3284 95.5405 23.4459 106.844C33.5633 118.164 47.4244 125.152 62.3181 126.463C77.2119 127.775 92.025 123.277 103.853 113.882C115.681 104.487 123.652 90.8764 126.185 75.7386C126.282 74.9418 126.363 74.1617 126.46 73.365C127.67 62.8747 126.331 52.2683 122.571 42.4918Z" fill="url(#paint11_linear_37_198)"/>
</g>
<defs>
<linearGradient id="paint0_linear_37_198" x1="114.66" y1="19.6175" x2="12.9122" y2="115.051" gradientUnits="userSpaceOnUse">
<stop offset="0.048" stop-color="#FFF44F"/>
<stop offset="0.111" stop-color="#FFE847"/>
<stop offset="0.225" stop-color="#FFC830"/>
<stop offset="0.368" stop-color="#FF980E"/>
<stop offset="0.401" stop-color="#FF8B16"/>
<stop offset="0.462" stop-color="#FF672A"/>
<stop offset="0.534" stop-color="#FF3647"/>
<stop offset="0.705" stop-color="#E31587"/>
</linearGradient>
<radialGradient id="paint1_radial_37_198" cx="0" cy="0" r="1" gradientUnits="userSpaceOnUse" gradientTransform="translate(110.091 14.0611) scale(124.392 127.955)">
<stop offset="0.129" stop-color="#FFBD4F"/>
<stop offset="0.186" stop-color="#FFAC31"/>
<stop offset="0.247" stop-color="#FF9D17"/>
<stop offset="0.283" stop-color="#FF980E"/>
<stop offset="0.403" stop-color="#FF563B"/>
<stop offset="0.467" stop-color="#FF3750"/>
<stop offset="0.71" stop-color="#F5156C"/>
<stop offset="0.782" stop-color="#EB0878"/>
<stop offset="0.86" stop-color="#E50080"/>
</radialGradient>
<radialGradient id="paint2_radial_37_198" cx="0" cy="0" r="1" gradientUnits="userSpaceOnUse" gradientTransform="translate(64.6374 66.3726) scale(124.392 127.955)">
<stop offset="0.3" stop-color="#960E18"/>
<stop offset="0.351" stop-color="#B11927" stop-opacity="0.74"/>
<stop offset="0.435" stop-color="#DB293D" stop-opacity="0.343"/>
<stop offset="0.497" stop-color="#F5334B" stop-opacity="0.094"/>
<stop offset="0.53" stop-color="#FF3750" stop-opacity="0"/>
</radialGradient>
<radialGradient id="paint3_radial_37_198" cx="0" cy="0" r="1" gradientUnits="userSpaceOnUse" gradientTransform="translate(79.6344 -14.9771) scale(90.1138 92.695)">
<stop offset="0.132" stop-color="#FFF44F"/>
<stop offset="0.252" stop-color="#FFDC3E"/>
<stop offset="0.506" stop-color="#FF9D12"/>
<stop offset="0.526" stop-color="#FF980E"/>
</radialGradient>
<radialGradient id="paint4_radial_37_198" cx="0" cy="0" r="1" gradientUnits="userSpaceOnUse" gradientTransform="translate(50.8776 99.7954) scale(59.2284 60.925)">
<stop offset="0.353" stop-color="#3A8EE6"/>
<stop offset="0.472" stop-color="#5C79F0"/>
<stop offset="0.669" stop-color="#9059FF"/>
<stop offset="1" stop-color="#C139E6"/>
</radialGradient>
<radialGradient id="paint5_radial_37_198" cx="0" cy="0" r="1" gradientTransform="matrix(30.5232 -7.59096 -8.63971 -36.7586 71.4288 55.8788)" gradientUnits="userSpaceOnUse">
<stop offset="0.206" stop-color="#9059FF" stop-opacity="0"/>
<stop offset="0.278" stop-color="#8C4FF3" stop-opacity="0.064"/>
<stop offset="0.747" stop-color="#7716A8" stop-opacity="0.45"/>
<stop offset="0.975" stop-color="#6E008B" stop-opacity="0.6"/>
</radialGradient>
<radialGradient id="paint6_radial_37_198" cx="0" cy="0" r="1" gradientUnits="userSpaceOnUse" gradientTransform="translate(63.0668 8.82566) scale(42.6089 43.8294)">
<stop stop-color="#FFE226"/>
<stop offset="0.121" stop-color="#FFDB27"/>
<stop offset="0.295" stop-color="#FFC82A"/>
<stop offset="0.502" stop-color="#FFA930"/>
<stop offset="0.732" stop-color="#FF7E37"/>
<stop offset="0.792" stop-color="#FF7139"/>
</radialGradient>
<radialGradient id="paint7_radial_37_198" cx="0" cy="0" r="1" gradientUnits="userSpaceOnUse" gradientTransform="translate(96.5573 -18.9753) scale(181.793 187)">
<stop offset="0.113" stop-color="#FFF44F"/>
<stop offset="0.456" stop-color="#FF980E"/>
<stop offset="0.622" stop-color="#FF5634"/>
<stop offset="0.716" stop-color="#FF3647"/>
<stop offset="0.904" stop-color="#E31587"/>
</radialGradient>
<radialGradient id="paint8_radial_37_198" cx="0" cy="0" r="1" gradientTransform="matrix(13.9829 136.3 86.9616 -9.43972 81.2429 -8.57641)" gradientUnits="userSpaceOnUse">
<stop stop-color="#FFF44F"/>
<stop offset="0.06" stop-color="#FFE847"/>
<stop offset="0.168" stop-color="#FFC830"/>
<stop offset="0.304" stop-color="#FF980E"/>
<stop offset="0.356" stop-color="#FF8B16"/>
<stop offset="0.455" stop-color="#FF672A"/>
<stop offset="0.57" stop-color="#FF3647"/>
<stop offset="0.737" stop-color="#E31587"/>
</radialGradient>
<radialGradient id="paint9_radial_37_198" cx="0" cy="0" r="1" gradientUnits="userSpaceOnUse" gradientTransform="translate(62.0632 25.0606) scale(113.496 116.747)">
<stop offset="0.137" stop-color="#FFF44F"/>
<stop offset="0.48" stop-color="#FF980E"/>
<stop offset="0.592" stop-color="#FF5634"/>
<stop offset="0.655" stop-color="#FF3647"/>
<stop offset="0.904" stop-color="#E31587"/>
</radialGradient>
<radialGradient id="paint10_radial_37_198" cx="0" cy="0" r="1" gradientUnits="userSpaceOnUse" gradientTransform="translate(92.0223 31.8925) scale(124.221 127.779)">
<stop offset="0.094" stop-color="#FFF44F"/>
<stop offset="0.231" stop-color="#FFE141"/>
<stop offset="0.509" stop-color="#FFAF1E"/>
<stop offset="0.626" stop-color="#FF980E"/>
</radialGradient>
<linearGradient id="paint11_linear_37_198" x1="113.471" y1="19.0932" x2="26.8064" y2="103.343" gradientUnits="userSpaceOnUse">
<stop offset="0.167" stop-color="#FFF44F" stop-opacity="0.8"/>
<stop offset="0.266" stop-color="#FFF44F" stop-opacity="0.634"/>
<stop offset="0.489" stop-color="#FFF44F" stop-opacity="0.217"/>
<stop offset="0.6" stop-color="#FFF44F" stop-opacity="0"/>
</linearGradient>
</defs>
</svg>
