<svg width="127" height="83" viewBox="0 0 127 83" fill="none" xmlns="http://www.w3.org/2000/svg">
<path d="M126.504 54.5411L126.488 54.4603L126.469 54.3774L119.893 26.4173L119.867 26.3138L119.841 26.2102C115.706 10.7774 101.661 0 85.6818 0H41.3193C25.3406 0 11.2944 10.7774 7.16024 26.2102L7.13196 26.3138L7.1074 26.4173L0.532413 54.3772L0.513562 54.458L0.496695 54.5389C-1.92152 66.0557 4.69514 77.4823 15.8846 81.1216L16.278 81.2479C18.5699 81.995 20.9636 82.375 23.3781 82.375C31.4813 82.375 39.0368 78.058 43.1618 71.0916L48.7568 62.8209L48.8959 62.6138L49.0222 62.3975C49.2196 62.0532 49.5867 61.8387 49.9799 61.8387H77.022C77.4154 61.8387 77.7825 62.0532 77.98 62.3975L78.106 62.6138L78.2454 62.8209L83.8401 71.0916C87.9651 78.058 95.5206 82.375 103.626 82.375C106.04 82.375 108.434 81.995 110.737 81.2439L111.118 81.1216C122.305 77.4845 128.919 66.056 126.504 54.5411ZM108.971 74.5243L108.589 74.6486C106.95 75.1829 105.277 75.4389 103.625 75.4389C98.0078 75.4389 92.6408 72.4749 89.7126 67.3939L83.9916 58.9353C82.5559 56.4417 79.8969 54.9025 77.0212 54.9025H49.9791C47.1038 54.9025 44.4447 56.4419 43.0088 58.9353L37.2881 67.3939C34.3601 72.4749 28.9948 75.4389 23.3773 75.4389C21.7251 75.4389 20.0522 75.1829 18.4131 74.6486L18.0292 74.5243C10.2328 71.9895 5.60151 63.986 7.286 55.9657L13.8612 28.0053C17.19 15.5776 28.4529 6.93614 41.3191 6.93614H85.6816C98.5475 6.93614 109.811 15.5776 113.139 28.0053L119.715 55.9657C121.397 63.986 116.768 71.9895 108.971 74.5243Z" fill="white"/>
<path d="M39.0556 20.3662H30.7359V29.9205H21.1799V38.2365H30.7359V47.7943H39.0556V38.2365H48.6117V29.9205H39.0556V20.3662Z" fill="white"/>
<path d="M90.7159 28.8461C93.6101 28.8461 95.9529 26.5033 95.9529 23.6128C95.9529 20.7183 93.6101 18.3755 90.7159 18.3755C87.8254 18.3755 85.4826 20.7183 85.4826 23.6128C85.4824 26.5033 87.8254 28.8461 90.7159 28.8461Z" fill="white"/>
<path d="M80.2454 28.8462C77.3549 28.8462 75.0101 31.191 75.0101 34.0795C75.0101 36.974 77.3549 39.3187 80.2454 39.3187C83.1378 39.3187 85.4806 36.974 85.4806 34.0795C85.4806 31.191 83.1378 28.8462 80.2454 28.8462Z" fill="white"/>
<path d="M90.7159 39.3169C87.8254 39.3169 85.4826 41.6597 85.4826 44.5542C85.4826 47.4447 87.8254 49.7875 90.7159 49.7875C93.6101 49.7875 95.9529 47.4447 95.9529 44.5542C95.9529 41.6597 93.6099 39.3169 90.7159 39.3169Z" fill="white"/>
<path d="M101.186 28.8462C98.296 28.8462 95.9529 31.191 95.9529 34.0795C95.9529 36.974 98.296 39.3187 101.186 39.3187C104.079 39.3187 106.424 36.974 106.424 34.0795C106.424 31.191 104.079 28.8462 101.186 28.8462Z" fill="white"/>
</svg>
