<svg width="127" height="130" viewBox="0 0 127 130" fill="none" xmlns="http://www.w3.org/2000/svg">
<path d="M63.1932 97.4018C80.6464 97.4018 94.6892 82.7504 94.6892 64.7972C94.6892 46.844 80.6464 32.3989 63.1932 32.3989C45.74 32.3989 31.4966 46.844 31.4966 64.7972C31.4966 82.7504 45.74 97.4018 63.1932 97.4018Z" fill="white"/>
<path d="M35.7088 81.0995L8.42568 32.3989C2.80856 42.3041 0 53.4475 0 64.7972C0 76.1469 3.00917 87.4966 8.42568 97.1954C14.0428 107.101 21.8666 115.355 31.496 120.927C41.1253 126.705 51.9584 129.594 63.1926 129.594L90.4757 81.0995C87.6672 86.0521 83.655 90.1792 78.8403 93.0683C74.0256 95.9573 68.6091 97.4018 62.992 97.4018C57.3749 97.4018 51.9584 95.9573 47.1437 93.0683C42.5296 90.1792 38.5174 86.0521 35.7088 81.0995Z" fill="url(#paint0_linear_37_225)"/>
<path d="M90.4758 81.0997L63.1926 129.8C74.2263 129.8 85.2599 126.705 94.6886 121.133C104.318 115.355 112.342 107.307 117.759 97.402C123.376 87.4968 126.185 76.3534 126.185 65.0037C126.185 53.654 123.175 42.3043 117.759 32.6055H63.1926C68.8097 32.6055 74.2263 34.05 79.0409 36.939C83.8556 39.828 87.8678 43.9552 90.6764 48.9078C93.4849 53.8604 94.8892 59.432 94.8892 65.2101C94.6886 70.5754 93.2843 76.1471 90.4758 81.0997Z" fill="url(#paint1_linear_37_225)"/>
<path d="M63.1926 90.5925C77.0348 90.5925 88.2691 79.0364 88.2691 64.7977C88.2691 50.559 77.0348 39.0029 63.1926 39.0029C49.3505 39.0029 38.1162 50.559 38.1162 64.7977C38.1162 79.0364 49.3505 90.5925 63.1926 90.5925Z" fill="#1A73E8"/>
<path d="M63.1928 32.3983H117.96C112.343 22.4931 104.519 14.2387 94.8894 8.66705C85.2601 2.88902 74.4271 0 63.3935 0C52.3598 0 41.3262 3.09537 31.8975 8.66705C22.2681 14.4451 14.2437 22.4931 8.82715 32.3983L36.1103 81.0988C33.3017 76.1462 31.8975 70.5745 31.8975 64.7965C31.8975 59.0185 33.3017 53.4468 36.1103 48.4942C38.9189 43.5416 42.9311 39.4144 47.7458 36.5254C52.1592 33.8428 57.5757 32.3983 63.1928 32.3983Z" fill="url(#paint2_linear_37_225)"/>
<defs>
<linearGradient id="paint0_linear_37_225" x1="70.0086" y1="125.778" x2="12.9382" y2="29.6819" gradientUnits="userSpaceOnUse">
<stop stop-color="#1E8E3E"/>
<stop offset="1" stop-color="#34A853"/>
</linearGradient>
<linearGradient id="paint1_linear_37_225" x1="53.9509" y1="130.009" x2="111.021" y2="33.912" gradientUnits="userSpaceOnUse">
<stop stop-color="#FCC934"/>
<stop offset="1" stop-color="#FBBC04"/>
</linearGradient>
<linearGradient id="paint2_linear_37_225" x1="8.44659" y1="40.4681" x2="117.886" y2="40.4681" gradientUnits="userSpaceOnUse">
<stop stop-color="#D93025"/>
<stop offset="1" stop-color="#EA4335"/>
</linearGradient>
</defs>
</svg>
