<svg width="1230" height="1230" viewBox="0 0 1230 1230" fill="none" xmlns="http://www.w3.org/2000/svg">
<path d="M513 58.8897C576.118 22.4486 653.882 22.4486 717 58.8897L1045.61 248.61C1108.72 285.051 1147.61 352.397 1147.61 425.279V804.721C1147.61 877.603 1108.72 944.949 1045.61 981.39L717 1171.11C653.882 1207.55 576.118 1207.55 513 1171.11L184.394 981.39C121.277 944.949 82.3943 877.603 82.3943 804.721V425.279C82.3943 352.397 121.277 285.051 184.394 248.61L513 58.8897Z" fill="#4276DD"/>
<path d="M543.76 327C635.031 327 716.377 369.493 769.095 435.774L687.618 494.094C653.055 452.956 601.229 426.807 543.294 426.807C439.233 426.807 354.874 511.165 354.874 615.227C354.874 719.288 439.233 803.646 543.294 803.646C601.503 803.645 653.544 777.248 688.106 735.773L769.095 793.744C716.377 860.026 635.031 902.52 543.76 902.52C384.835 902.519 256 773.685 256 614.76C256 455.835 384.835 327 543.76 327Z" fill="white"/>
<path d="M756.991 701V529H786.009V701H756.991ZM686 629.594V600.406H857V629.594H686Z" fill="white"/>
<path d="M956.991 701V529H986.009V701H956.991ZM886 629.594V600.406H1057V629.594H886Z" fill="white"/>
</svg>
