<svg width="67" height="67" viewBox="0 0 67 67" fill="none" xmlns="http://www.w3.org/2000/svg">
<path d="M20.1 10.05H46.9C49.5654 10.05 52.1217 11.1088 54.0064 12.9936C55.8912 14.8783 56.95 17.4346 56.95 20.1V46.9C56.95 49.5654 55.8912 52.1217 54.0064 54.0064C52.1217 55.8912 49.5654 56.95 46.9 56.95H20.1C17.4346 56.95 14.8783 55.8912 12.9936 54.0064C11.1088 52.1217 10.05 49.5654 10.05 46.9V20.1C10.05 17.4346 11.1088 14.8783 12.9936 12.9936C14.8783 11.1088 17.4346 10.05 20.1 10.05ZM20.1 16.75C19.2115 16.75 18.3594 17.1029 17.7312 17.7312C17.1029 18.3594 16.75 19.2115 16.75 20.1V46.9C16.75 47.7885 17.1029 48.6406 17.7312 49.2688C18.3594 49.8971 19.2115 50.25 20.1 50.25H46.9C47.7885 50.25 48.6406 49.8971 49.2688 49.2688C49.8971 48.6406 50.25 47.7885 50.25 46.9V20.1C50.25 19.2115 49.8971 18.3594 49.2688 17.7312C48.6406 17.1029 47.7885 16.75 46.9 16.75H20.1ZM26.8 23.45H40.2C41.0885 23.45 41.9406 23.8029 42.5688 24.4312C43.1971 25.0594 43.55 25.9115 43.55 26.8V40.2C43.55 41.0885 43.1971 41.9406 42.5688 42.5688C41.9406 43.1971 41.0885 43.55 40.2 43.55H26.8C25.9115 43.55 25.0594 43.1971 24.4312 42.5688C23.8029 41.9406 23.45 41.0885 23.45 40.2V26.8C23.45 25.9115 23.8029 25.0594 24.4312 24.4312C25.0594 23.8029 25.9115 23.45 26.8 23.45ZM30.15 30.15V36.85H36.85V30.15H30.15ZM20.1 0C20.9885 0 21.8406 0.352945 22.4688 0.981192C23.0971 1.60944 23.45 2.46152 23.45 3.35V10.05C23.45 10.9385 23.0971 11.7906 22.4688 12.4188C21.8406 13.0471 20.9885 13.4 20.1 13.4C19.2115 13.4 18.3594 13.0471 17.7312 12.4188C17.1029 11.7906 16.75 10.9385 16.75 10.05V3.35C16.75 2.46152 17.1029 1.60944 17.7312 0.981192C18.3594 0.352945 19.2115 0 20.1 0ZM3.35 16.75H10.05C10.9385 16.75 11.7906 17.1029 12.4188 17.7312C13.0471 18.3594 13.4 19.2115 13.4 20.1C13.4 20.9885 13.0471 21.8406 12.4188 22.4688C11.7906 23.0971 10.9385 23.45 10.05 23.45H3.35C2.46152 23.45 1.60944 23.0971 0.981192 22.4688C0.352945 21.8406 0 20.9885 0 20.1C0 19.2115 0.352945 18.3594 0.981192 17.7312C1.60944 17.1029 2.46152 16.75 3.35 16.75ZM56.95 16.75H63.65C64.5385 16.75 65.3906 17.1029 66.0188 17.7312C66.6471 18.3594 67 19.2115 67 20.1C67 20.9885 66.6471 21.8406 66.0188 22.4688C65.3906 23.0971 64.5385 23.45 63.65 23.45H56.95C56.0615 23.45 55.2094 23.0971 54.5812 22.4688C53.9529 21.8406 53.6 20.9885 53.6 20.1C53.6 19.2115 53.9529 18.3594 54.5812 17.7312C55.2094 17.1029 56.0615 16.75 56.95 16.75ZM3.35 30.15H10.05C10.9385 30.15 11.7906 30.5029 12.4188 31.1312C13.0471 31.7594 13.4 32.6115 13.4 33.5C13.4 34.3885 13.0471 35.2406 12.4188 35.8688C11.7906 36.4971 10.9385 36.85 10.05 36.85H3.35C2.46152 36.85 1.60944 36.4971 0.981192 35.8688C0.352945 35.2406 0 34.3885 0 33.5C0 32.6115 0.352945 31.7594 0.981192 31.1312C1.60944 30.5029 2.46152 30.15 3.35 30.15ZM56.95 30.15H63.65C64.5385 30.15 65.3906 30.5029 66.0188 31.1312C66.6471 31.7594 67 32.6115 67 33.5C67 34.3885 66.6471 35.2406 66.0188 35.8688C65.3906 36.4971 64.5385 36.85 63.65 36.85H56.95C56.0615 36.85 55.2094 36.4971 54.5812 35.8688C53.9529 35.2406 53.6 34.3885 53.6 33.5C53.6 32.6115 53.9529 31.7594 54.5812 31.1312C55.2094 30.5029 56.0615 30.15 56.95 30.15ZM3.35 43.55H10.05C10.9385 43.55 11.7906 43.9029 12.4188 44.5312C13.0471 45.1594 13.4 46.0115 13.4 46.9C13.4 47.7885 13.0471 48.6406 12.4188 49.2688C11.7906 49.8971 10.9385 50.25 10.05 50.25H3.35C2.46152 50.25 1.60944 49.8971 0.981192 49.2688C0.352945 48.6406 0 47.7885 0 46.9C0 46.0115 0.352945 45.1594 0.981192 44.5312C1.60944 43.9029 2.46152 43.55 3.35 43.55ZM56.95 43.55H63.65C64.5385 43.55 65.3906 43.9029 66.0188 44.5312C66.6471 45.1594 67 46.0115 67 46.9C67 47.7885 66.6471 48.6406 66.0188 49.2688C65.3906 49.8971 64.5385 50.25 63.65 50.25H56.95C56.0615 50.25 55.2094 49.8971 54.5812 49.2688C53.9529 48.6406 53.6 47.7885 53.6 46.9C53.6 46.0115 53.9529 45.1594 54.5812 44.5312C55.2094 43.9029 56.0615 43.55 56.95 43.55ZM20.1 53.6C20.9885 53.6 21.8406 53.9529 22.4688 54.5812C23.0971 55.2094 23.45 56.0615 23.45 56.95V63.65C23.45 64.5385 23.0971 65.3906 22.4688 66.0188C21.8406 66.6471 20.9885 67 20.1 67C19.2115 67 18.3594 66.6471 17.7312 66.0188C17.1029 65.3906 16.75 64.5385 16.75 63.65V56.95C16.75 56.0615 17.1029 55.2094 17.7312 54.5812C18.3594 53.9529 19.2115 53.6 20.1 53.6ZM46.9 0C47.7885 0 48.6406 0.352945 49.2688 0.981192C49.8971 1.60944 50.25 2.46152 50.25 3.35V10.05C50.25 10.9385 49.8971 11.7906 49.2688 12.4188C48.6406 13.0471 47.7885 13.4 46.9 13.4C46.0115 13.4 45.1594 13.0471 44.5312 12.4188C43.9029 11.7906 43.55 10.9385 43.55 10.05V3.35C43.55 2.46152 43.9029 1.60944 44.5312 0.981192C45.1594 0.352945 46.0115 0 46.9 0ZM46.9 53.6C47.7885 53.6 48.6406 53.9529 49.2688 54.5812C49.8971 55.2094 50.25 56.0615 50.25 56.95V63.65C50.25 64.5385 49.8971 65.3906 49.2688 66.0188C48.6406 66.6471 47.7885 67 46.9 67C46.0115 67 45.1594 66.6471 44.5312 66.0188C43.9029 65.3906 43.55 64.5385 43.55 63.65V56.95C43.55 56.0615 43.9029 55.2094 44.5312 54.5812C45.1594 53.9529 46.0115 53.6 46.9 53.6ZM33.5 0C34.3885 0 35.2406 0.352945 35.8688 0.981192C36.4971 1.60944 36.85 2.46152 36.85 3.35V10.05C36.85 10.9385 36.4971 11.7906 35.8688 12.4188C35.2406 13.0471 34.3885 13.4 33.5 13.4C32.6115 13.4 31.7594 13.0471 31.1312 12.4188C30.5029 11.7906 30.15 10.9385 30.15 10.05V3.35C30.15 2.46152 30.5029 1.60944 31.1312 0.981192C31.7594 0.352945 32.6115 0 33.5 0ZM33.5 53.6C34.3885 53.6 35.2406 53.9529 35.8688 54.5812C36.4971 55.2094 36.85 56.0615 36.85 56.95V63.65C36.85 64.5385 36.4971 65.3906 35.8688 66.0188C35.2406 66.6471 34.3885 67 33.5 67C32.6115 67 31.7594 66.6471 31.1312 66.0188C30.5029 65.3906 30.15 64.5385 30.15 63.65V56.95C30.15 56.0615 30.5029 55.2094 31.1312 54.5812C31.7594 53.9529 32.6115 53.6 33.5 53.6Z" fill="white"/>
</svg>
