<svg width="79" height="79" viewBox="0 0 79 79" fill="none" xmlns="http://www.w3.org/2000/svg">
<path d="M27.1816 60.1134C29.8981 63.7635 33.305 66.8445 37.209 69.1814V57.9183C33.7756 58.1443 30.3955 58.8842 27.1816 60.1134ZM22.6335 62.2464C20.7552 63.3014 18.9794 64.5293 17.3292 65.9142H17.2164C22.3583 70.2657 28.6643 73.0125 35.3525 73.8142C30.3187 70.9337 25.9772 66.9851 22.6335 62.2464ZM20.4554 41.9659C20.8052 46.9711 22.2272 51.6829 24.4844 55.8699C28.5346 54.2006 32.8354 53.2203 37.209 52.9695V41.9659H20.4497H20.4554ZM15.5066 41.9659H5.02214C5.55776 49.5893 8.61506 56.8176 13.7121 62.5116C15.6702 60.8187 17.7919 59.3177 20.0434 58.0368C17.3963 53.0671 15.849 47.5862 15.5066 41.9659ZM54.8147 55.9659C57.1057 51.7506 58.539 47.0106 58.9001 41.9716H42.0562V52.9808C46.5592 53.2629 50.8534 54.3012 54.8147 55.9715V55.9659ZM59.2444 58.1666C61.3999 59.408 63.437 60.8526 65.3217 62.4777C70.3985 56.7896 73.4431 49.577 73.9779 41.9716H63.8489C63.5032 47.6394 61.9322 53.1647 59.2444 58.1666ZM42.0562 69.2266C45.9627 66.903 49.3752 63.8356 52.1005 60.198C48.8853 58.9418 45.4992 58.1771 42.0562 57.9296V69.2322V69.2266ZM44.0933 73.7578C50.6208 72.8897 56.7623 70.1676 61.7893 65.9142H61.7441C60.152 64.5784 58.4428 63.3886 56.6374 62.3592C53.3253 67.0175 49.0465 70.9056 44.0933 73.7578ZM24.49 23.1131C22.1712 27.412 20.7957 32.1559 20.4554 37.0284H37.209V26.0079C32.838 25.7601 28.5391 24.7836 24.49 23.1188V23.1131ZM20.0491 20.9463C17.7981 19.6707 15.6775 18.1776 13.7178 16.4884C8.62185 22.1809 5.56463 29.4071 5.02779 37.0284H15.5066C15.8491 31.4039 17.3984 25.9189 20.0491 20.9463ZM37.2034 9.81857C33.309 12.1529 29.91 15.2279 27.1986 18.8697C30.4076 20.0934 33.7819 20.8295 37.209 21.0535V9.81857H37.2034ZM35.3525 5.18579C28.6803 5.98227 22.3874 8.71484 17.2502 13.0463H17.2954C18.96 14.4457 20.7488 15.6815 22.6391 16.7424C25.9825 12.0083 30.3219 8.06375 35.3525 5.18579ZM52.0836 18.7681C49.3605 15.1424 45.954 12.0848 42.0562 9.76779V21.0366C45.4935 20.7873 48.8737 20.0226 52.0836 18.7681ZM56.6148 16.6013C58.4183 15.5716 60.1255 14.3818 61.7159 13.0463H61.7498C56.7302 8.81678 50.6058 6.11093 44.0989 5.24786C49.0379 8.09188 53.3066 11.966 56.6148 16.6069V16.6013ZM58.9001 37.0284C58.5555 32.1103 57.1564 27.324 54.7978 22.9946C50.7477 24.697 46.4408 25.7079 42.0562 25.9854V37.0284H58.9001ZM63.8489 37.0284H73.9779C73.441 29.4071 70.3838 22.1809 65.2879 16.4884C63.4074 18.1124 61.3783 19.5558 59.2274 20.7996C61.857 25.6863 63.4878 31.1824 63.8489 37.0341V37.0284ZM39.5 79C29.0239 79 18.977 74.8384 11.5693 67.4307C4.16159 60.023 0 49.9761 0 39.5C0 29.0239 4.16159 18.977 11.5693 11.5693C18.977 4.16159 29.0239 0 39.5 0C49.9761 0 60.023 4.16159 67.4307 11.5693C74.8384 18.977 79 29.0239 79 39.5C79 49.9761 74.8384 60.023 67.4307 67.4307C60.023 74.8384 49.9761 79 39.5 79Z" fill="white"/>
</svg>
