<svg width="127" height="130" viewBox="0 0 127 130" fill="none" xmlns="http://www.w3.org/2000/svg">
<path d="M42.3227 101.478C35.3446 93.0017 30.8272 80.489 30.5243 66.4316V63.3684C30.8272 49.311 35.3446 36.7983 42.3227 28.3224C51.3828 16.238 64.8342 8.5668 79.8503 8.5668C89.0871 8.5668 97.7434 11.4743 105.138 16.5235C94.0336 6.2953 79.396 0.0649 63.3326 0H63.0928C28.253 0 0 29.0622 0 64.9C0 99.7124 26.6378 128.113 60.0896 129.722C61.0865 129.774 62.0834 129.8 63.0928 129.8C79.2446 129.8 93.9831 123.557 105.138 113.289C97.7434 118.326 89.0997 121.233 79.8503 121.233C64.8342 121.233 51.3828 113.562 42.3227 101.478Z" fill="url(#paint0_linear_37_222)"/>
<path d="M42.3228 28.322C48.1147 21.2868 55.5849 17.0553 63.7617 17.0553C82.1343 17.0553 97.0116 38.4723 97.0116 64.8996C97.0116 91.3269 82.1217 112.744 63.7617 112.744C55.5975 112.744 48.1147 108.499 42.3228 101.477C51.3829 113.562 64.8343 121.233 79.8504 121.233C89.0872 121.233 97.7435 118.325 105.138 113.289C118.059 101.399 126.186 84.123 126.186 64.8996C126.186 45.6762 118.059 28.3998 105.138 16.5231C97.7435 11.4739 89.0998 8.56641 79.8504 8.56641C64.8343 8.56641 51.3829 16.2376 42.3228 28.322Z" fill="url(#paint1_linear_37_222)"/>
<defs>
<linearGradient id="paint0_linear_37_222" x1="52.5718" y1="2.11626" x2="52.5718" y2="127.911" gradientUnits="userSpaceOnUse">
<stop offset="0.3" stop-color="#FF1B2D"/>
<stop offset="0.4381" stop-color="#FA1A2C"/>
<stop offset="0.5939" stop-color="#ED1528"/>
<stop offset="0.7581" stop-color="#D60E21"/>
<stop offset="0.9272" stop-color="#B70519"/>
<stop offset="1" stop-color="#A70014"/>
</linearGradient>
<linearGradient id="paint1_linear_37_222" x1="84.2554" y1="9.53026" x2="84.2554" y2="120.789" gradientUnits="userSpaceOnUse">
<stop stop-color="#9C0000"/>
<stop offset="0.7" stop-color="#FF4B4B"/>
</linearGradient>
</defs>
</svg>
