<svg width="130" height="130" viewBox="0 0 130 130" fill="none" xmlns="http://www.w3.org/2000/svg">
<path d="M22.9179 0H106.494C119.155 0 129.412 10.5506 129.412 23.5744V106.226C129.412 119.249 119.155 129.8 106.494 129.8H22.9179C10.2568 129.8 0 119.249 0 106.226V23.5744C0 10.5506 10.2568 0 22.9179 0Z" fill="#001E36"/>
<path d="M29.1268 91.0105V33.9373C29.1268 33.5616 29.279 33.3425 29.6747 33.3425C30.5877 33.3425 31.4399 33.3425 32.6878 33.2799C33.9965 33.2173 35.3357 33.2173 36.7966 33.1546C38.2575 33.092 39.8097 33.092 41.4836 33.0294C43.1576 32.9668 44.7707 32.9668 46.3838 32.9668C50.7969 32.9668 54.4796 33.5303 57.4927 34.6887C60.2015 35.6279 62.6667 37.1933 64.7059 39.2283C66.4407 41.0128 67.7799 43.173 68.6321 45.5523C69.4539 47.8691 69.88 50.2797 69.88 52.753C69.88 57.5117 68.8147 61.4564 66.6538 64.5558C64.4929 67.6553 61.4798 70.0033 57.9797 71.3182C54.3274 72.6957 50.2795 73.1967 45.8359 73.1967C44.5272 73.1967 43.675 73.1967 43.1272 73.134C42.5793 73.0714 41.8184 73.0714 40.8141 73.0714V90.8853C40.8749 91.261 40.601 91.6053 40.2358 91.668C40.1749 91.668 40.114 91.668 40.0227 91.668H29.766C29.3399 91.7306 29.1268 91.5114 29.1268 91.0105ZM40.8749 44.0496V62.6774C41.6358 62.74 42.3358 62.8026 42.975 62.8026H45.8359C47.936 62.8026 50.036 62.4583 52.0448 61.8008C53.7796 61.2999 55.2709 60.2354 56.4579 58.8579C57.584 57.4804 58.1319 55.5707 58.1319 53.16C58.1927 51.4381 57.7666 49.7162 56.884 48.2134C55.9709 46.7733 54.6622 45.6776 53.11 45.0514C51.1013 44.2061 48.9708 43.893 46.749 43.9557C45.3489 43.9557 44.1011 43.9557 43.0967 44.0183C42.001 43.9243 41.2402 43.987 40.8749 44.0496Z" fill="#31A8FF"/>
<path d="M103.541 59.2959C101.928 58.4193 100.193 57.7932 98.3672 57.4175C96.3585 56.9792 94.3802 56.6974 92.341 56.6974C91.2757 56.6348 90.1192 56.8226 89.1148 57.0731C88.4148 57.2296 87.8061 57.6366 87.4409 58.1689C87.167 58.6072 87.0148 59.1707 87.0148 59.6716C87.0148 60.1725 87.2278 60.6734 87.5626 61.1117C88.0496 61.7066 88.6887 62.2075 89.3887 62.6145C90.6366 63.2719 91.9149 63.8981 93.2236 64.4303C96.1454 65.4321 98.9455 66.8097 101.533 68.469C103.298 69.6273 104.759 71.1927 105.793 73.0711C106.646 74.8556 107.102 76.7967 107.041 78.7691C107.102 81.3676 106.341 83.9974 104.941 86.1576C103.42 88.3804 101.319 90.1023 98.9151 91.1041C96.2672 92.2625 93.041 92.8886 89.1453 92.8886C86.68 92.8886 84.2452 92.6695 81.8103 92.1686C79.9233 91.8242 78.0363 91.2294 76.3015 90.3841C75.9363 90.1649 75.6623 89.7892 75.7232 89.3196V79.677C75.7232 79.5204 75.7841 79.3013 75.9363 79.1761C76.0884 79.0508 76.2711 79.1134 76.4232 79.2387C78.5233 80.5223 80.7451 81.3989 83.119 81.9624C85.1582 82.5259 87.3191 82.8077 89.4801 82.8077C91.5192 82.8077 92.9801 82.5259 93.9541 82.025C94.8063 81.6493 95.415 80.6788 95.415 79.7083C95.415 78.9256 94.9889 78.2055 94.1063 77.4855C93.2541 76.7654 91.4584 75.9201 88.8105 74.8869C86.0713 73.8851 83.5147 72.5702 81.1407 70.8796C79.4668 69.6586 78.0667 68.062 77.0319 66.1522C76.1797 64.3677 75.7232 62.4266 75.7841 60.4856C75.7841 58.1062 76.4232 55.8208 77.6102 53.7858C78.9494 51.563 80.9581 49.7785 83.2712 48.6828C85.7974 47.3365 88.9931 46.7417 92.828 46.7417C95.0497 46.7417 97.302 46.8982 99.5238 47.2426C101.137 47.4618 102.719 47.9001 104.15 48.5262C104.363 48.5888 104.576 48.808 104.698 49.0271C104.759 49.2463 104.82 49.4654 104.82 49.6846V58.7324C104.82 58.9515 104.698 59.1707 104.546 59.2959C104.028 59.4212 103.754 59.4212 103.541 59.2959Z" fill="#31A8FF"/>
</svg>
