<svg width="71" height="80" viewBox="0 0 71 80" fill="none" xmlns="http://www.w3.org/2000/svg">
<path d="M61.4727 40C69.3859 31.9268 72.9267 24.0726 69.9574 19.2257C68.7751 17.2929 66.0507 14.991 59.7885 14.991C56.3535 14.991 52.341 15.6813 48.011 16.9538C45.1354 6.63866 40.3427 0 34.8093 0C29.3454 0 24.6011 6.47959 21.7134 16.5816C17.8853 15.5462 14.3324 14.991 11.2482 14.991C4.98602 14.991 2.26162 17.2929 1.07631 19.2257C-1.30339 23.1092 0.293156 28.9076 5.56658 35.5522C6.74282 37.0348 8.08536 38.5234 9.54886 40.012C1.64175 48.0792 -1.88999 55.9304 1.07631 60.7773C2.25859 62.7071 4.98602 65.012 11.2452 65.012C14.3294 65.012 17.8853 64.4538 21.7134 63.4214C24.5981 73.5234 29.3423 80 34.8063 80C40.3367 80 45.1293 73.3614 48.0079 63.0492C52.338 64.3217 56.3535 65.012 59.7885 65.012C66.0507 65.012 68.7751 62.7101 69.9574 60.7773C72.9237 55.9304 69.3828 48.0702 61.4727 40ZM59.7885 18.1903C62.4161 18.1903 65.839 18.6585 67.2027 20.8884C69.1682 24.0996 66.2079 30.5972 59.1747 37.7611C56.6075 35.3782 53.6835 32.9982 50.4451 30.6963C50.0943 26.9058 49.538 23.3403 48.7971 20.075C52.8883 18.8595 56.6529 18.1903 59.7915 18.1903H59.7885ZM42.1842 50.8854C39.9769 52.2179 37.7453 53.4424 35.5199 54.5618C33.2974 53.4424 31.0659 52.2179 28.8585 50.8854C26.5363 49.4838 24.3138 48.0132 22.2033 46.5036C22.0672 44.4058 21.9765 42.2479 21.9765 40C21.9765 37.7491 22.0642 35.5882 22.2033 33.4904C24.2685 32.0078 26.4849 30.5432 28.8525 29.1146C31.0598 27.7821 33.2944 26.5576 35.5199 25.4352C37.7453 26.5546 39.9769 27.7821 42.1872 29.1146C44.0075 30.2131 45.7159 31.3385 47.3578 32.47C47.5423 34.877 47.6451 37.386 47.6451 40C47.6451 42.614 47.5423 45.1231 47.3578 47.527C45.7159 48.6615 44.0075 49.7869 42.1842 50.8854ZM46.9466 51.6807C46.6291 54.2647 46.2058 56.6777 45.7069 58.9316C43.5721 58.1843 41.3769 57.3019 39.1484 56.2995C40.7177 55.4592 42.29 54.5678 43.8563 53.6225C44.9116 52.9862 45.9427 52.3379 46.9466 51.6807ZM31.8883 56.2965C29.2002 57.509 26.5544 58.5384 24.0145 59.3728C23.4037 56.7047 22.9078 53.7905 22.557 50.6483C24.0568 51.6627 25.5899 52.6621 27.1803 53.6225C28.7467 54.5678 30.319 55.4592 31.8883 56.2965ZM18.8288 43.9586C17.1778 42.6591 15.6115 41.3355 14.1661 40.003C15.5873 38.6885 17.1536 37.3619 18.8288 36.0384C18.7804 37.3409 18.7532 38.6615 18.7532 40C18.7532 41.3385 18.7804 42.6591 18.8288 43.9586ZM22.5631 29.3337C22.9108 26.2005 23.4067 23.2923 24.0145 20.6303C26.5544 21.4646 29.1972 22.494 31.8853 23.7065C30.316 24.5468 28.7406 25.4382 27.1743 26.3836C25.5808 27.3469 24.0417 28.3343 22.5601 29.3367L22.5631 29.3337ZM39.1514 23.7035C41.3799 22.7011 43.5751 21.8187 45.7069 21.0714C46.2058 23.3223 46.6291 25.7353 46.9466 28.3193C45.9397 27.6621 44.9146 27.0168 43.8624 26.3806C42.2961 25.4352 40.7207 24.5438 39.1514 23.7035ZM50.7384 34.91C52.979 36.6056 55.0412 38.3133 56.8645 40C55.0412 41.6867 52.979 43.3914 50.7384 45.09C50.82 43.4274 50.8684 41.7287 50.8684 40C50.8684 38.2713 50.82 36.5756 50.7384 34.91ZM34.8093 3.19928C38.4831 3.19928 42.3989 8.7575 44.9298 17.9352C41.8879 18.9856 38.725 20.3031 35.5199 21.8547C31.8551 20.081 28.2508 18.6164 24.8158 17.503C27.3467 8.58643 31.1959 3.19928 34.8123 3.19928H34.8093ZM3.83397 20.8884C5.19768 18.6585 8.62057 18.1903 11.2512 18.1903C14.0452 18.1903 17.338 18.7215 20.9121 19.6939C20.0564 23.3794 19.4275 27.446 19.0767 31.7977C16.4339 33.7575 14.0149 35.7593 11.853 37.7701C10.4711 36.3655 9.20717 34.964 8.10048 33.5714C3.78257 28.1333 2.22836 23.5114 3.83397 20.8884ZM11.2482 61.8097C8.61754 61.8097 5.19768 61.3415 3.83397 59.1116C1.86853 55.9004 4.82576 49.4028 11.859 42.2389C14.0452 44.2587 16.4702 46.2485 19.0767 48.1783C19.4275 52.539 20.0564 56.6116 20.9121 60.3031C17.338 61.2755 14.0452 61.8067 11.2512 61.8067L11.2482 61.8097ZM34.8093 76.8007C31.1959 76.8007 27.3467 71.4136 24.8128 62.5C28.2477 61.3866 31.8551 59.922 35.5168 58.1453C38.722 59.6969 41.8848 61.0144 44.9267 62.0678C42.3989 71.2425 38.4831 76.8007 34.8093 76.8007ZM67.2027 59.1146C65.839 61.3415 62.4191 61.8127 59.7885 61.8127C56.6498 61.8127 52.8853 61.1435 48.7941 59.928C49.5349 56.6597 50.0943 53.0942 50.4451 49.3037C53.6805 46.9988 56.6075 44.6219 59.1747 42.2389C66.2109 49.4058 69.1682 55.9034 67.2027 59.1177V59.1146Z" fill="white"/>
</svg>
