<svg width="115" height="119" viewBox="0 0 115 119" fill="none" xmlns="http://www.w3.org/2000/svg">
<path d="M2.33812 76.0995C9.43633 100.455 31.3938 118.2 57.3809 118.2C89.1115 118.2 114.835 91.7394 114.835 59.1C114.835 26.4601 89.1115 0 57.3809 0C26.9326 0 2.01756 24.3649 0.0498047 55.1735C3.76831 61.5959 5.21873 65.568 2.33861 76.0995H2.33812Z" fill="url(#paint0_linear_37_193)"/>
<path d="M54.4215 44.2979C54.4215 44.3973 54.4215 44.4967 54.4265 44.5901L40.3671 65.5982C38.0897 65.4917 35.8043 65.9026 33.6373 66.8208C32.6965 67.2167 31.7955 67.706 30.9471 68.2818L0.0750699 55.2088C0.0750699 55.2088 -0.639042 67.2976 2.33774 76.3072L24.1625 85.5705C25.2584 90.6079 28.6178 95.0265 33.5742 97.152C41.6834 100.637 51.0334 96.665 54.4067 88.32C55.2846 86.1386 55.6939 83.8507 55.6347 81.5679L75.7512 66.7802C75.9139 66.7853 76.0816 66.7904 76.2443 66.7904C88.2826 66.7904 98.0671 56.6952 98.0671 44.2979C98.0671 31.8995 88.2826 21.8135 76.2443 21.8135C64.211 21.8135 54.4215 31.8995 54.4215 44.2979ZM51.0482 86.8691C48.4374 93.3169 41.2341 96.3759 34.9728 93.6923C32.0843 92.4545 29.9035 90.1869 28.6454 87.483L35.7496 90.5115C40.3671 92.49 45.6648 90.2376 47.5842 85.4893C49.5095 80.7359 47.3253 75.2774 42.7102 73.299L35.3664 70.1689C38.2001 69.063 41.4215 69.0225 44.4314 70.311C47.4658 71.6097 49.8202 74.0548 51.068 77.1798C52.3157 80.3047 52.3107 83.7543 51.0482 86.8691ZM76.2443 59.2824C68.2303 59.2824 61.7057 52.5607 61.7057 44.2979C61.7057 36.0416 68.2303 29.3179 76.2443 29.3179C84.2633 29.3179 90.7879 36.0416 90.7879 44.2979C90.7879 52.5607 84.2633 59.2824 76.2443 59.2824ZM65.3502 44.275C65.3502 38.0591 70.2424 33.0176 76.269 33.0176C82.3005 33.0176 87.1927 38.0591 87.1927 44.275C87.1927 50.4914 82.3005 55.5284 76.269 55.5284C70.2424 55.5284 65.3502 50.4914 65.3502 44.275Z" fill="white"/>
<defs>
<linearGradient id="paint0_linear_37_193" x1="13438.4" y1="0" x2="13438.4" y2="27540.6" gradientUnits="userSpaceOnUse">
<stop stop-color="#111D2E"/>
<stop offset="0.212" stop-color="#051839"/>
<stop offset="0.407" stop-color="#0A1B48"/>
<stop offset="0.581" stop-color="#132E62"/>
<stop offset="0.738" stop-color="#144B7E"/>
<stop offset="0.873" stop-color="#136497"/>
<stop offset="1" stop-color="#1387B8"/>
</linearGradient>
</defs>
</svg>
