<svg width="93" height="81" viewBox="0 0 93 81" fill="none" xmlns="http://www.w3.org/2000/svg">
<path d="M61.2691 33.5464C65.6666 33.5464 69.2471 29.97 69.2471 25.569C69.2471 21.1699 65.6666 17.5933 61.2691 17.5933C56.8687 17.5933 53.2947 21.1697 53.2947 25.569C53.2947 29.97 56.8687 33.5464 61.2691 33.5464Z" fill="white"/>
<path d="M17.4054 56.7002C16.7693 56.885 16.1062 56.9775 15.4369 56.9775C14.8166 56.9775 14.1957 56.897 13.5718 56.7291C12.1876 56.3517 10.9798 55.5736 10.052 54.4986H7.70504C6.90201 54.4986 6.2513 53.8443 6.2513 53.0417V48.1565C5.05772 45.9652 5.14007 43.4106 6.2513 41.3522V37.897C5.14551 35.8449 5.06429 33.299 6.2513 31.1002V7.70617C6.2513 6.9037 6.90201 6.24923 7.70504 6.24923H42.0975C42.7889 5.79173 43.5396 5.41356 44.37 5.19072C45.0207 5.01796 45.6958 4.92736 46.3749 4.92736C47.5765 4.92736 48.7611 5.2076 49.8179 5.73583C49.9663 3.37494 51.1991 1.32188 52.9922 0H7.70504C3.45879 0 0 3.45542 0 7.70617V53.0417C0 57.2921 3.45879 60.7478 7.70504 60.7478H20.1769C18.8257 59.7773 17.8171 58.3601 17.4054 56.7002Z" fill="white"/>
<path d="M85.2955 0H69.5468C71.3424 1.32188 72.5727 3.37832 72.7169 5.73902C73.7833 5.20779 74.9649 4.92754 76.1641 4.92754C77.6966 4.92754 79.1534 5.42726 80.4012 6.24942H85.2955C86.0978 6.24942 86.7496 6.9037 86.7496 7.70636V15.5836C87.6341 17.3118 87.8663 19.262 87.364 21.1093C87.2182 21.6559 87.0034 22.1695 86.7496 22.6616V28.5054C87.8421 30.6583 87.9216 33.2634 86.7496 35.5481V53.0419C86.7496 53.8443 86.0978 54.4988 85.2955 54.4988H44.4723C43.5516 55.5646 42.319 56.3581 40.9444 56.7306C40.3382 56.8959 39.7141 56.9775 39.0906 56.9775C38.4179 56.9775 37.758 56.8837 37.1221 56.7016C37.0398 57.0182 36.9276 57.3226 36.81 57.6222C36.1319 59.3106 34.8228 60.6674 33.1752 61.4291V65.5574C28.2725 66.0886 24.4316 70.2034 24.4316 75.2431V78.1142C24.4316 79.4089 25.4833 80.4601 26.7729 80.4601H66.2308C67.5204 80.4601 68.5709 79.4091 68.5709 78.1142V75.2431C68.5709 70.2034 64.7309 66.0886 59.8283 65.5574V60.7478H85.2957C89.542 60.7478 93 57.2921 93 53.0417V7.70617C92.9998 3.45542 89.5418 0 85.2955 0ZM63.8857 75.2431V75.7702H29.1171V75.2431C29.1171 72.4311 31.4069 70.1413 34.2232 70.1413H58.7794C61.597 70.1413 63.8857 72.4311 63.8857 75.2431Z" fill="white"/>
<path d="M47.9037 10.0262C47.4377 9.75364 46.9042 9.61765 46.3749 9.61765C46.1078 9.61765 45.8418 9.65104 45.5814 9.72063C44.7966 9.93241 44.1335 10.4428 43.7248 11.1483L40.005 17.5847C39.1609 19.049 39.6571 20.9177 41.1258 21.7653L43.9341 23.3843C43.8975 23.637 43.8641 23.8869 43.8304 24.1386C44.3785 24.6321 44.8752 25.1804 45.2483 25.8358L48.2074 30.9558C49.1556 32.605 49.4036 34.5191 48.9067 36.3741C48.5611 37.6279 47.901 38.741 46.9802 39.6267C47.4077 40.0373 47.7647 40.5099 48.0764 41.0109L50.693 39.5012C51.8654 40.3932 53.11 41.1868 54.4911 41.7648V44.9195C54.4911 46.6064 55.8631 47.975 57.5532 47.975H64.9857C66.6724 47.975 68.0442 46.6064 68.0442 44.9195V41.7648C69.4253 41.1868 70.6703 40.393 71.8397 39.5012L74.6372 41.1127C75.1073 41.3834 75.6374 41.5232 76.1698 41.5232C76.4307 41.5232 76.691 41.4881 76.9542 41.4198C77.7357 41.2095 78.4113 40.6963 78.8146 39.9921L82.5304 33.5546C83.3756 32.0916 82.8759 30.2188 81.4096 29.3738L78.6029 27.752C78.6959 27.0285 78.8296 26.3194 78.8296 25.5697C78.8296 24.825 78.6959 24.1088 78.6029 23.3847L81.4096 21.7657C82.1185 21.3602 82.6274 20.6905 82.833 19.9094C83.0451 19.1236 82.936 18.2891 82.5304 17.5851L78.8146 11.1506C78.248 10.1691 77.218 9.61802 76.1643 9.61802C75.643 9.61802 75.1195 9.7497 74.6372 10.0281L71.8397 11.6394C70.6703 10.7461 69.4187 9.95266 68.0442 9.37736V6.22563C68.0442 4.53572 66.6724 3.16357 64.9857 3.16357H57.5532C55.8631 3.16357 54.4911 4.53572 54.4911 6.22563V9.37717C53.1135 9.95229 51.8654 10.7459 50.693 11.6392L47.9037 10.0262ZM61.2691 14.4677C67.3904 14.4677 72.369 19.4472 72.369 25.5693C72.369 31.6919 67.3904 36.6725 61.2691 36.6725C55.1486 36.6725 50.1693 31.6917 50.1693 25.5693C50.1693 19.4472 55.1486 14.4677 61.2691 14.4677Z" fill="white"/>
<path d="M32.6423 54.986V52.4801C33.7389 52.0239 34.7265 51.3961 35.6597 50.6838L37.8769 51.9605C38.2484 52.1787 38.6638 52.2908 39.0908 52.2908C39.2999 52.2908 39.5091 52.2604 39.7118 52.2077C40.3329 52.0382 40.8688 51.6305 41.1864 51.0763L44.1459 45.9643C44.8152 44.8058 44.4145 43.3174 43.2519 42.649L41.0259 41.3609C41.0928 40.7864 41.1954 40.2221 41.1954 39.6297C41.1954 39.0359 41.0928 38.468 41.0259 37.8942L43.2519 36.6101C43.8095 36.2848 44.2147 35.756 44.3877 35.1321C44.5548 34.5064 44.4603 33.8476 44.1459 33.2893L41.1864 28.1802C40.742 27.4019 39.924 26.9669 39.085 26.9669C38.6695 26.9669 38.2577 27.0697 37.8771 27.2924L35.6599 28.5719C34.7267 27.8615 33.7361 27.2316 32.6425 26.7732V24.2746C32.6425 22.9313 31.5555 21.8438 30.2135 21.8438H24.3147C22.9698 21.8438 21.8854 22.9313 21.8854 24.2746V26.7732C20.7948 27.2316 19.7982 27.8615 18.8721 28.5719L16.6522 27.2896C16.2821 27.0742 15.8674 26.9668 15.4465 26.9668C15.2347 26.9668 15.0197 26.994 14.8104 27.0499C14.1893 27.2151 13.663 27.6195 13.3358 28.1766L10.3826 33.2891C9.71872 34.4516 10.1128 35.9376 11.2728 36.6099L13.5018 37.8941C13.4354 38.4679 13.3319 39.0357 13.3319 39.6295C13.3319 40.2217 13.4356 40.7862 13.5018 41.3587L11.2728 42.6445C10.1128 43.3136 9.71872 44.8023 10.3826 45.9639L13.3354 51.0759C13.6626 51.6302 14.1891 52.0378 14.81 52.2074C15.0164 52.2601 15.2283 52.2905 15.4369 52.2905C15.8644 52.2905 16.2791 52.1783 16.6519 51.9601L18.8663 50.6835C19.798 51.3957 20.7944 52.0237 21.8852 52.4797V54.9856C21.8852 56.3244 22.9696 57.4131 24.3145 57.4131H30.2134C31.5553 57.4137 32.6423 56.3247 32.6423 54.986ZM20.5646 39.6295C20.5646 35.9269 23.5663 32.9286 27.2578 32.9286C30.9652 32.9286 33.9665 35.9267 33.9665 39.6295C33.9665 43.3258 30.9652 46.3241 27.2578 46.3241C23.5663 46.3239 20.5646 43.3258 20.5646 39.6295Z" fill="white"/>
</svg>
