<svg width="127" height="130" viewBox="0 0 127 130" fill="none" xmlns="http://www.w3.org/2000/svg">
<path fill-rule="evenodd" clip-rule="evenodd" d="M63.0928 0C46.3595 0 30.3116 6.83766 18.4794 19.0088C6.64726 31.1799 0 47.6875 0 64.9C0 82.1125 6.64726 98.6201 18.4794 110.791C30.3116 122.962 46.3595 129.8 63.0928 129.8C79.826 129.8 95.8739 122.962 107.706 110.791C119.538 98.6201 126.186 82.1125 126.186 64.9C126.186 47.6875 119.538 31.1799 107.706 19.0088C95.8739 6.83766 79.826 2.56487e-07 63.0928 0ZM63.0928 127.219C47.0251 127.219 31.6154 120.653 20.2538 108.966C8.89225 97.279 2.50937 81.428 2.50937 64.9C2.50937 48.372 8.89225 32.521 20.2538 20.834C31.6154 9.14696 47.0251 2.58125 63.0928 2.58125C79.1605 2.58125 94.5701 9.14696 105.932 20.834C117.293 32.521 123.676 48.372 123.676 64.9C123.676 81.428 117.293 97.279 105.932 108.966C94.5701 120.653 79.1605 127.219 63.0928 127.219Z" fill="black"/>
<path d="M63.0928 127.219C47.0251 127.219 31.6154 120.653 20.2538 108.966C8.89225 97.279 2.50937 81.428 2.50937 64.9C2.50937 48.372 8.89225 32.521 20.2538 20.834C31.6154 9.14696 47.0251 2.58125 63.0928 2.58125C79.1605 2.58125 94.5701 9.14696 105.932 20.834C117.293 32.521 123.676 48.372 123.676 64.9C123.676 81.428 117.293 97.279 105.932 108.966C94.5701 120.653 79.1605 127.219 63.0928 127.219Z" fill="white"/>
<path fill-rule="evenodd" clip-rule="evenodd" d="M100.58 74.2766C99.2218 80.1026 96.5935 85.5346 92.8938 90.1617C89.194 94.7888 84.5197 98.4898 79.2245 100.985L73.0791 93.8204L62.5807 104.619C56.6382 104.546 50.7923 103.063 45.4983 100.285C40.2043 97.5077 35.605 93.5106 32.0586 88.6052C33.1852 88.9213 34.3119 89.132 35.4897 89.2373C37.1797 89.2373 39.0746 88.6579 39.0746 85.6552V56.4713C39.1006 55.7197 38.9543 54.9724 38.6476 54.2897C38.3409 53.6071 37.8824 53.0082 37.3091 52.5415C36.7358 52.0749 36.0638 51.7535 35.3474 51.6034C34.631 51.4533 33.8903 51.4787 33.1852 51.6775C28.3201 52.8364 24.4792 65.2686 24.4792 65.2686C24.3574 55.6872 27.6249 46.3868 33.6733 39.0992C39.7217 31.8115 48.1387 27.0333 57.3571 25.6543C52.0823 28.815 49.1633 33.8195 49.1633 38.0338C49.1633 44.882 53.1066 44.0391 54.2844 43.0382V82.4418C54.833 83.8032 55.8302 84.9223 57.1011 85.6025C57.8941 86.0184 58.7716 86.235 59.6617 86.2347C63.7074 86.2347 68.8798 81.4936 68.8798 81.4936V49.6231C68.7799 47.919 68.2979 46.2619 67.4716 44.7814C66.6454 43.3009 65.4972 42.0371 64.1171 41.0891C64.1171 41.0891 68.5213 40.2989 71.9525 42.9856C77.9552 35.6096 86.3677 30.7396 95.6123 29.2891C95.6123 29.2891 84.2945 38.4025 84.2945 50.6766C84.2945 59.79 84.4993 82.0731 84.4993 82.0731C88.6987 86.2347 94.9465 80.1766 100.58 74.2766Z" fill="black"/>
</svg>
