<svg width="130" height="130" viewBox="0 0 130 130" fill="none" xmlns="http://www.w3.org/2000/svg">
<path fill-rule="evenodd" clip-rule="evenodd" d="M107.779 104.007L84.5043 64.8401L107.779 25.6729L118.999 64.8401L107.779 104.007ZM55.9785 100.185L26.7354 71.1684H73.2844L96.5588 110.336L55.9785 100.185ZM55.9785 29.3751L96.4403 19.2247L73.1659 58.3919H26.6169L55.9785 29.3751ZM115.418 0L62.5423 13.7327L54.6648 27.2257L38.7912 27.1058L0 64.8401L38.7912 102.574L54.6648 102.454L62.5423 115.947L115.418 129.8L129.621 78.3331L121.624 64.9599L129.621 51.5855L115.418 0Z" fill="#110B09"/>
<path d="M55.9785 29.3751L96.4403 19.2247L73.1659 58.3919H26.6169L55.9785 29.3751Z" fill="white"/>
<path d="M55.9785 100.185L26.7354 71.1684H73.2844L96.5588 110.336L55.9785 100.185Z" fill="white"/>
<path d="M107.779 104.007L84.5043 64.8401L107.779 25.6729L118.999 64.8401L107.779 104.007Z" fill="white"/>
</svg>
