<svg width="127" height="130" viewBox="0 0 127 130" fill="none" xmlns="http://www.w3.org/2000/svg">
<path d="M18.3547 102.118C16.9022 103.476 14.7894 103.748 12.9408 103.069L3.30121 98.8577C1.32048 98.0428 0 96.1411 0 93.9678V35.968C0 33.7948 1.32048 31.7573 3.30121 30.9423L12.9408 26.8674C14.7894 26.0524 16.9022 26.4599 18.3547 27.8182L20.4675 29.584C19.147 28.6332 17.2984 28.9048 16.374 30.2631C15.9779 30.8065 15.8458 31.4856 15.8458 32.0289V97.7711C15.8458 99.4011 17.1663 100.759 18.7509 100.759C19.4111 100.759 19.9393 100.624 20.4675 100.216L18.3547 102.118Z" fill="#52218A"/>
<path d="M3.30121 98.8581C1.32048 98.0431 0 96.1415 0 93.9682V93.5607C0 95.3265 1.45253 96.6848 3.03711 96.6848C3.82941 96.6848 4.6217 96.2773 5.28194 95.734L87.152 2.55402C89.5289 0.109068 93.0942 -0.570085 96.1313 0.924054L122.277 13.828C125.05 15.1863 126.767 18.0387 126.767 21.1629V21.4345C126.767 18.5821 124.522 16.2729 121.749 16.2729C120.56 16.2729 119.504 16.6804 118.58 17.4954L20.4675 100.216L18.3547 102.118C16.9022 103.476 14.7894 103.748 12.9408 103.069L3.30121 98.8581Z" fill="#6C33AF"/>
<path d="M3.30121 30.9425C1.32048 31.8934 0 33.795 0 35.9683V36.3758C0 34.61 1.45253 33.2517 3.03711 33.2517C3.82941 33.2517 4.6217 33.6592 5.28194 34.2025L87.152 127.382C89.5289 129.827 93.0942 130.507 96.1313 129.012L122.277 116.109C125.05 114.75 126.767 111.898 126.767 108.774V108.502C126.767 111.354 124.522 113.664 121.749 113.664C120.56 113.664 119.504 113.256 118.58 112.441L20.4675 29.5842L18.3547 27.6826C16.7702 26.3243 14.6574 26.0526 12.9408 26.8676L3.30121 30.9425Z" fill="#854CC7"/>
<path d="M96.1314 129.012C93.0943 130.506 89.529 129.827 87.1521 127.382C89.0008 129.284 91.9058 129.284 93.7545 127.382C94.6789 126.431 95.075 125.345 95.075 123.986V5.81357C95.075 3.23278 92.9622 1.05949 90.4533 1.05949C89.2649 1.05949 88.0764 1.60281 87.1521 2.41779C89.529 -0.027161 93.0943 -0.706316 96.1314 0.787823L122.277 13.6918C125.05 15.0501 126.767 17.9025 126.767 21.0266V108.638C126.767 111.762 125.05 114.614 122.277 115.972L96.1314 129.012Z" fill="#B179F1"/>
<g opacity="0.25">
<path fill-rule="evenodd" clip-rule="evenodd" d="M90.9814 129.556C92.698 129.963 94.5467 129.691 96.1313 129.012L122.277 116.108C125.05 114.75 126.767 111.898 126.767 108.773V21.1626C126.767 18.0385 125.05 15.186 122.277 13.8277L96.1313 0.923762C94.2826 -0.0270541 92.1698 -0.162887 90.1891 0.516268C89.0007 0.92376 87.9443 1.60291 87.152 2.55373L45.0285 50.3662L20.4675 29.5841L18.3547 27.6824C17.0343 26.46 15.3176 26.0525 13.601 26.5958C13.3369 26.5958 13.0728 26.7316 12.9408 26.8675L3.30121 30.9424C1.45253 31.7574 0.264097 33.5232 0 35.5606C0 35.6965 0 35.8323 0 35.9681V93.9679C0 94.1037 0 94.2396 0 94.3754C0.132048 96.4129 1.45253 98.1787 3.30121 98.9937L12.9408 103.069C13.2048 103.204 13.3369 103.204 13.601 103.34C15.3176 103.748 17.0343 103.34 18.3547 102.254L20.4675 100.488L45.0285 79.5698L87.152 127.518C88.2084 128.469 89.5289 129.284 90.9814 129.556ZM95.0749 37.3264L62.3269 64.9001L95.0749 92.6096V37.3264ZM15.8458 46.2913L32.2198 64.9001L15.8458 83.6448V46.2913Z" fill="url(#paint0_linear_37_215)"/>
</g>
<defs>
<linearGradient id="paint0_linear_37_215" x1="63.3833" y1="0.0920685" x2="63.3833" y2="129.814" gradientUnits="userSpaceOnUse">
<stop stop-color="white"/>
<stop offset="1" stop-color="white" stop-opacity="0"/>
</linearGradient>
</defs>
</svg>
