<svg width="100" height="100" viewBox="0 0 100 100" fill="none" xmlns="http://www.w3.org/2000/svg">
<mask id="mask0_68_1652" style="mask-type:alpha" maskUnits="userSpaceOnUse" x="0" y="0" width="100" height="100">
<path fill-rule="evenodd" clip-rule="evenodd" d="M70.9119 99.0592C72.4869 99.6728 74.2828 99.6335 75.8725 98.8685L96.4608 88.9618C98.6242 87.9208 100 85.7313 100 83.3293V16.1554C100 13.7534 98.6243 11.5639 96.4609 10.5229L75.8725 0.615882C73.7862 -0.388003 71.3446 -0.142114 69.5135 1.18908C69.252 1.37924 69.0028 1.59156 68.769 1.82554L29.3551 37.7836L12.1872 24.7517C10.589 23.5386 8.35363 23.638 6.86933 24.9882L1.36303 29.997C-0.452552 31.6485 -0.454633 34.5048 1.35853 36.1591L16.2471 49.7422L1.35853 63.3253C-0.454633 64.9795 -0.452552 67.8359 1.36303 69.4874L6.86933 74.4962C8.35363 75.8464 10.589 75.9458 12.1872 74.7326L29.3551 61.7008L68.769 97.6588C69.3925 98.2827 70.1246 98.7525 70.9119 99.0592ZM75.0152 27.041L45.1091 49.7422L75.0152 72.4433V27.041Z" fill="white"/>
</mask>
<g mask="url(#mask0_68_1652)">
<path d="M96.4616 10.5385L75.8571 0.617821C73.4721 -0.530494 70.6219 -0.0461098 68.7502 1.82561L1.29881 63.3255C-0.515459 64.9796 -0.513373 67.836 1.30331 69.4875L6.81295 74.4963C8.29816 75.8465 10.5349 75.9459 12.134 74.7328L93.3611 13.1122C96.0862 11.0449 100 12.9885 100 16.409V16.1698C100 13.7688 98.6248 11.5801 96.4616 10.5385Z" fill="#0065A9"/>
<g filter="url(#filter0_d_68_1652)">
<path d="M96.4616 88.9462L75.8571 98.8669C73.4721 100.015 70.6219 99.5308 68.7502 97.6591L1.29881 36.1593C-0.515459 34.5051 -0.513373 31.6487 1.30331 29.9972L6.81295 24.9884C8.29816 23.6382 10.5349 23.5388 12.134 24.7519L93.3611 86.3725C96.0862 88.4398 100 86.4962 100 83.0758V83.315C100 85.7159 98.6248 87.9046 96.4616 88.9462Z" fill="#007ACC"/>
</g>
<g filter="url(#filter1_d_68_1652)">
<path d="M75.8578 98.8685C73.4721 100.016 70.6219 99.5308 68.75 97.6589C71.0564 99.9652 75 98.3317 75 95.07V4.41438C75 1.15264 71.0564 -0.480857 68.75 1.82554C70.6219 -0.046349 73.4721 -0.531417 75.8578 0.615882L96.4587 10.5229C98.6234 11.5639 100 13.7534 100 16.1554V83.3293C100 85.7313 98.6234 87.9208 96.4586 88.9618L75.8578 98.8685Z" fill="#1F9CF0"/>
</g>
<g style="mix-blend-mode:overlay" opacity="0.25">
<path fill-rule="evenodd" clip-rule="evenodd" d="M70.8513 99.0593C72.4263 99.6728 74.2223 99.6335 75.8119 98.8686L96.4002 88.9619C98.5636 87.9209 99.9394 85.7314 99.9394 83.3293V16.1555C99.9394 13.7534 98.5637 11.5639 96.4003 10.5229L75.8119 0.615882C73.7257 -0.388003 71.284 -0.142114 69.4529 1.18907C69.1914 1.37924 68.9422 1.59156 68.7084 1.82554L29.2945 37.7836L12.1266 24.7518C10.5285 23.5386 8.29309 23.6381 6.80878 24.9882L1.30249 29.997C-0.513099 31.6486 -0.51518 34.5049 1.29799 36.1591L16.1865 49.7422L1.29799 63.3254C-0.51518 64.9796 -0.513099 67.8359 1.30249 69.4874L6.80878 74.4962C8.29309 75.8464 10.5285 75.9458 12.1266 74.7327L29.2945 61.7008L68.7084 97.6589C69.3319 98.2827 70.064 98.7526 70.8513 99.0593ZM74.9546 27.0411L45.0485 49.7422L74.9546 72.4434V27.0411Z" fill="url(#paint0_linear_68_1652)"/>
</g>
</g>
<defs>
<filter id="filter0_d_68_1652" x="-8.39389" y="15.5714" width="116.727" height="92.2458" filterUnits="userSpaceOnUse" color-interpolation-filters="sRGB">
<feFlood flood-opacity="0" result="BackgroundImageFix"/>
<feColorMatrix in="SourceAlpha" type="matrix" values="0 0 0 0 0 0 0 0 0 0 0 0 0 0 0 0 0 0 127 0" result="hardAlpha"/>
<feOffset/>
<feGaussianBlur stdDeviation="4.16667"/>
<feColorMatrix type="matrix" values="0 0 0 0 0 0 0 0 0 0 0 0 0 0 0 0 0 0 0.25 0"/>
<feBlend mode="overlay" in2="BackgroundImageFix" result="effect1_dropShadow_68_1652"/>
<feBlend mode="normal" in="SourceGraphic" in2="effect1_dropShadow_68_1652" result="shape"/>
</filter>
<filter id="filter1_d_68_1652" x="60.4167" y="-8.33334" width="47.9167" height="116.151" filterUnits="userSpaceOnUse" color-interpolation-filters="sRGB">
<feFlood flood-opacity="0" result="BackgroundImageFix"/>
<feColorMatrix in="SourceAlpha" type="matrix" values="0 0 0 0 0 0 0 0 0 0 0 0 0 0 0 0 0 0 127 0" result="hardAlpha"/>
<feOffset/>
<feGaussianBlur stdDeviation="4.16667"/>
<feColorMatrix type="matrix" values="0 0 0 0 0 0 0 0 0 0 0 0 0 0 0 0 0 0 0.25 0"/>
<feBlend mode="overlay" in2="BackgroundImageFix" result="effect1_dropShadow_68_1652"/>
<feBlend mode="normal" in="SourceGraphic" in2="effect1_dropShadow_68_1652" result="shape"/>
</filter>
<linearGradient id="paint0_linear_68_1652" x1="49.9394" y1="-5.67028e-07" x2="49.9394" y2="99.4845" gradientUnits="userSpaceOnUse">
<stop stop-color="white"/>
<stop offset="1" stop-color="white" stop-opacity="0"/>
</linearGradient>
</defs>
</svg>
